<?xml version="1.0" encoding="UTF-8" standalone="no"?>
<svg
   viewBox="0 0 24 24"
   version="1.1"
   id="svg2"
   sodipodi:docname="mapping-arc.svg"
   inkscape:version="1.3.2 (091e20e, 2023-11-25, custom)"
   xmlns:inkscape="http://www.inkscape.org/namespaces/inkscape"
   xmlns:sodipodi="http://sodipodi.sourceforge.net/DTD/sodipodi-0.dtd"
   xmlns="http://www.w3.org/2000/svg"
   xmlns:svg="http://www.w3.org/2000/svg">
  <defs
     id="defs2" />
  <sodipodi:namedview
     id="namedview2"
     pagecolor="#ffcfcf"
     bordercolor="#000000"
     borderopacity="0.25"
     inkscape:showpageshadow="2"
     inkscape:pageopacity="0.0"
     inkscape:pagecheckerboard="0"
     inkscape:deskcolor="#d1d1d1"
     inkscape:zoom="32"
     inkscape:cx="9.140625"
     inkscape:cy="12.453125"
     inkscape:window-width="1920"
     inkscape:window-height="1009"
     inkscape:window-x="1912"
     inkscape:window-y="-8"
     inkscape:window-maximized="1"
     inkscape:current-layer="svg2" />
  <path
     id="path5"
     style="fill:#ffffff;stroke-width:3.72822"
     d="M 8.5117188 3.7226562 A 9 9 0 0 0 3 12.123047 A 9 9 0 0 0 12.123047 21 A 9 9 0 0 0 21 11.876953 A 9 9 0 0 0 20.285156 8.53125 L 18.4375 9.3007812 A 7 7 0 0 1 19 11.904297 A 7 7 0 0 1 12.095703 19 A 7 7 0 0 1 5 12.095703 A 7 7 0 0 1 9.2832031 5.5703125 L 8.5117188 3.7226562 z " />
</svg>
