g Spear
v 0.814905 -0.108663 -0.165344
v 1.414213 0 -0.000333
v 0 1.414213 -0.119416
v 0 0.706242 -0.165343
v -0.814905 -0.108662 -0.165343
v -1.414213 1E-06 -0.000333
v 1E-06 1.414213 0.11875
v 1.414213 -1E-06 -0.000333
v 0.814905 -0.108663 0.164347
v 0 0.706242 0.164347
v -1.414213 0 -0.000333
v -0.814905 -0.108662 0.164347
v 0 1.414213 -0.119416
v 1.414213 0 -0.000333
v 1.414213 -1E-06 -0.000333
v 1E-06 1.414213 0.11875
v 1.414213 0 -0.000333
v 0 -3.795198 -0.000333
v -1E-06 -3.795198 -0.000333
v 1.414213 -1E-06 -0.000333
v -1.414213 0 -0.000333
v -1.414213 1E-06 -0.000333
v 1E-06 1.414213 0.11875
v -1.414213 0 -0.000333
v -1.414213 1E-06 -0.000333
v 0 1.414213 -0.119416
v 0.68871 -0.195473 0.004996
v 0 0.493237 0.004997
v 0 0.706242 0.164347
v 0.814905 -0.108663 0.164347
v 0.814905 -0.108663 0.164347
v 1.414213 -1E-06 -0.000333
v -1E-06 -3.795198 -0.000333
v 0 -2.164229 0.164347
v -0.814905 -0.108662 0.164347
v -1.414213 0 -0.000333
v 0 -3.795198 -0.000333
v 1.414213 0 -0.000333
v 0.814905 -0.108663 -0.165344
v 0 -2.164229 -0.165343
v -1.414213 1E-06 -0.000333
v -0.814905 -0.108662 -0.165343
v -0.68871 -0.195473 0.004997
v 0 -1.777602 0.004997
v 0 -2.164229 0.164347
v -0.814905 -0.108662 0.164347
v 0 -1.777602 0.004997
v 0.68871 -0.195473 0.004996
v 0.814905 -0.108663 0.164347
v 0 -2.164229 0.164347
v -0.68871 -0.195473 0.004997
v 0 0.493237 0.004997
v 0 0.706242 -0.165343
v -0.814905 -0.108662 -0.165343
v -0.814905 -0.108662 0.164347
v 0 0.706242 0.164347
v 0 0.493237 0.004997
v -0.68871 -0.195473 0.004997
v 0 -2.164229 -0.165343
v 0.814905 -0.108663 -0.165344
v 0.68871 -0.195473 0.004996
v 0 -1.777602 0.004997
v -0.814905 -0.108662 -0.165343
v 0 -2.164229 -0.165343
v 0 -1.777602 0.004997
v -0.68871 -0.195473 0.004997
v 0.814905 -0.108663 -0.165344
v 0 0.706242 -0.165343
v 0 0.493237 0.004997
v 0.68871 -0.195473 0.004996
vn 0 0.125365 -0.9921107
vn 0 0.125365 -0.9921107
vn 0 0.125365 -0.9921107
vn 0 0.125365 -0.9921107
vn 0 0.125365 -0.9921107
vn 0 0.125365 -0.9921107
vn 0 0.12491 0.992168
vn 0 0.12491 0.992168
vn 0 0.12491 0.992168
vn 0 0.12491 0.992168
vn 0 0.12491 0.992168
vn 0 0.12491 0.992168
vn 0.7071068 0.7071068 0
vn 0.7071068 0.7071068 0
vn 0.7071068 0.7071068 0
vn 0.7071068 0.7071068 0
vn 0.000405 0 -1
vn 0.000405 0 -1
vn 0.000405 0 -1
vn 0.000405 0 -1
vn 5.9E-05 0 -1
vn 5.9E-05 0 -1
vn -0.7071068 0.7071068 0
vn -0.7071068 0.7071068 0
vn -0.7071068 0.7071068 0
vn -0.7071068 0.7071068 0
vn -0.5138823 -0.5138823 0.6869134
vn -0.5138823 -0.5138823 0.6869134
vn -0.5138823 -0.5138823 0.6869134
vn -0.5138823 -0.5138823 0.6869134
vn 0 -0.1058091 0.9943866
vn 0 -0.1058091 0.9943866
vn 0 -0.1058091 0.9943866
vn 0 -0.1058091 0.9943866
vn 0 -0.1058091 0.9943866
vn 0 -0.1058091 0.9943866
vn 0 -0.106019 -0.9943641
vn 0 -0.106019 -0.9943641
vn 0 -0.106019 -0.9943641
vn 0 -0.106019 -0.9943641
vn 0 -0.106019 -0.9943641
vn 0 -0.106019 -0.9943641
vn 0.748105 0.309224 0.587128
vn 0.748105 0.309224 0.587128
vn 0.748105 0.309224 0.587128
vn 0.748105 0.309224 0.587128
vn -0.7481059 0.309224 0.5871269
vn -0.7481059 0.309224 0.5871269
vn -0.7481059 0.309224 0.5871269
vn -0.7481059 0.309224 0.5871269
vn 0.5297239 -0.5297248 -0.6624078
vn 0.5297239 -0.5297248 -0.6624078
vn 0.5297239 -0.5297248 -0.6624078
vn 0.5297239 -0.5297248 -0.6624078
vn 0.5138819 -0.5138819 0.6869139
vn 0.5138819 -0.5138819 0.6869139
vn 0.5138819 -0.5138819 0.6869139
vn 0.5138819 -0.5138819 0.6869139
vn -0.7647461 0.316102 -0.5614651
vn -0.7647461 0.316102 -0.5614651
vn -0.7647461 0.316102 -0.5614651
vn -0.7647461 0.316102 -0.5614651
vn 0.7647461 0.316102 -0.5614651
vn 0.7647461 0.316102 -0.5614651
vn 0.7647461 0.316102 -0.5614651
vn 0.7647461 0.316102 -0.5614651
vn -0.529725 -0.529725 -0.6624069
vn -0.529725 -0.529725 -0.6624069
vn -0.529725 -0.529725 -0.6624069
vn -0.529725 -0.529725 -0.6624069
g Spear_0
f 3/3/3 2/2/2 1/1/1
f 1/1/1 4/4/4 3/3/3
f 4/4/4 5/5/5 3/3/3
f 5/5/5 6/6/6 3/3/3
f 9/9/9 8/8/8 7/7/7
f 7/7/7 10/10/10 9/9/9
f 7/7/7 11/11/11 10/10/10
f 11/11/11 12/12/12 10/10/10
f 15/15/15 14/14/14 13/13/13
f 16/16/16 15/15/15 13/13/13
f 19/19/19 18/18/18 17/17/17
f 20/20/20 19/19/19 17/17/17
f 19/19/19 21/21/21 18/18/18
f 21/21/21 22/22/22 18/18/18
f 25/25/25 24/24/24 23/23/23
f 26/26/26 25/25/25 23/23/23
f 29/29/29 28/28/28 27/27/27
f 30/30/30 29/29/29 27/27/27
f 33/33/33 32/32/32 31/31/31
f 31/31/31 34/34/34 33/33/33
f 34/34/34 35/35/35 33/33/33
f 35/35/35 36/36/36 33/33/33
f 39/39/39 38/38/38 37/37/37
f 37/37/37 40/40/40 39/39/39
f 37/37/37 41/41/41 40/40/40
f 41/41/41 42/42/42 40/40/40
f 45/45/45 44/44/44 43/43/43
f 46/46/46 45/45/45 43/43/43
f 49/49/49 48/48/48 47/47/47
f 50/50/50 49/49/49 47/47/47
f 53/53/53 52/52/52 51/51/51
f 54/54/54 53/53/53 51/51/51
f 57/57/57 56/56/56 55/55/55
f 58/58/58 57/57/57 55/55/55
f 61/61/61 60/60/60 59/59/59
f 62/62/62 61/61/61 59/59/59
f 65/65/65 64/64/64 63/63/63
f 66/66/66 65/65/65 63/63/63
f 69/69/69 68/68/68 67/67/67
f 70/70/70 69/69/69 67/67/67
