# Mesh "CombinedMesh" exported with Unity Assets Bundle Extractor; 216 vertices, 324 indices, 448 bits per vertex
g CombinedMesh
# SubMesh 0
# Vertices
v 26.500000 22.110912 12.232233
vt 0.000000 0.000000
vn -0.000000 -0.707107 0.707107
v 25.500000 22.110912 12.232233
vt 1.000000 0.000000
vn -0.000000 -0.707107 0.707107
v 26.500000 27.767767 17.889088
vt 0.000000 1.000000
vn -0.000000 -0.707107 0.707107
v 25.500000 27.767767 17.889088
vt 1.000000 1.000000
vn -0.000000 -0.707107 0.707107
v 26.500000 29.889088 15.767767
vt 0.000000 1.000000
vn -0.000000 0.707107 0.707107
v 25.500000 29.889088 15.767767
vt 1.000000 1.000000
vn -0.000000 0.707107 0.707107
v 26.500000 24.232233 10.110912
vt 0.000000 1.000000
vn -0.000000 0.707107 -0.707107
v 25.500000 24.232233 10.110912
vt 1.000000 1.000000
vn -0.000000 0.707107 -0.707107
v 26.500000 27.767767 17.889088
vt 0.000000 0.000000
vn -0.000000 0.707107 0.707107
v 25.500000 27.767767 17.889088
vt 1.000000 0.000000
vn -0.000000 0.707107 0.707107
v 26.500000 29.889088 15.767767
vt 0.000000 0.000000
vn -0.000000 0.707107 -0.707107
v 25.500000 29.889088 15.767767
vt 1.000000 0.000000
vn -0.000000 0.707107 -0.707107
v 26.500000 24.232233 10.110912
vt 0.000000 0.000000
vn -0.000000 -0.707107 -0.707107
v 26.500000 22.110912 12.232233
vt 0.000000 1.000000
vn -0.000000 -0.707107 -0.707107
v 25.500000 22.110912 12.232233
vt 1.000000 1.000000
vn -0.000000 -0.707107 -0.707107
v 25.500000 24.232233 10.110912
vt 1.000000 0.000000
vn -0.000000 -0.707107 -0.707107
v 25.500000 22.110912 12.232233
vt 0.000000 0.000000
vn -1.000000 0.000000 0.000000
v 25.500000 27.767767 17.889088
vt 0.000000 1.000000
vn -1.000000 0.000000 0.000000
v 25.500000 29.889088 15.767767
vt 1.000000 1.000000
vn -1.000000 0.000000 0.000000
v 25.500000 24.232233 10.110912
vt 1.000000 0.000000
vn -1.000000 0.000000 0.000000
v 26.500000 24.232233 10.110912
vt 0.000000 0.000000
vn 1.000000 0.000000 0.000000
v 26.500000 29.889088 15.767767
vt 0.000000 1.000000
vn 1.000000 0.000000 0.000000
v 26.500000 27.767767 17.889088
vt 1.000000 1.000000
vn 1.000000 0.000000 0.000000
v 26.500000 22.110912 12.232233
vt 1.000000 0.000000
vn 1.000000 0.000000 0.000000
v 27.500000 24.000000 31.000000
vt 0.000000 0.000000
vn -0.000000 0.000000 1.000000
v 24.500000 24.000000 31.000000
vt 1.000000 0.000000
vn -0.000000 0.000000 1.000000
v 27.500000 26.000000 31.000000
vt 0.000000 1.000000
vn -0.000000 0.000000 1.000000
v 24.500000 26.000000 31.000000
vt 1.000000 1.000000
vn -0.000000 0.000000 1.000000
v 27.500000 26.000000 11.000000
vt 0.000000 1.000000
vn -0.000000 1.000000 0.000000
v 24.500000 26.000000 11.000000
vt 1.000000 1.000000
vn -0.000000 1.000000 0.000000
v 27.500000 24.000000 11.000000
vt 0.000000 1.000000
vn -0.000000 0.000000 -1.000000
v 24.500000 24.000000 11.000000
vt 1.000000 1.000000
vn -0.000000 0.000000 -1.000000
v 27.500000 26.000000 31.000000
vt 0.000000 0.000000
vn -0.000000 1.000000 0.000000
v 24.500000 26.000000 31.000000
vt 1.000000 0.000000
vn -0.000000 1.000000 0.000000
v 27.500000 26.000000 11.000000
vt 0.000000 0.000000
vn -0.000000 0.000000 -1.000000
v 24.500000 26.000000 11.000000
vt 1.000000 0.000000
vn -0.000000 0.000000 -1.000000
v 27.500000 24.000000 11.000000
vt 0.000000 0.000000
vn -0.000000 -1.000000 0.000000
v 27.500000 24.000000 31.000000
vt 0.000000 1.000000
vn -0.000000 -1.000000 0.000000
v 24.500000 24.000000 31.000000
vt 1.000000 1.000000
vn -0.000000 -1.000000 0.000000
v 24.500000 24.000000 11.000000
vt 1.000000 0.000000
vn -0.000000 -1.000000 0.000000
v 24.500000 24.000000 31.000000
vt 0.000000 0.000000
vn -1.000000 0.000000 0.000000
v 24.500000 26.000000 31.000000
vt 0.000000 1.000000
vn -1.000000 0.000000 0.000000
v 24.500000 26.000000 11.000000
vt 1.000000 1.000000
vn -1.000000 0.000000 0.000000
v 24.500000 24.000000 11.000000
vt 1.000000 0.000000
vn -1.000000 0.000000 0.000000
v 27.500000 24.000000 11.000000
vt 0.000000 0.000000
vn 1.000000 0.000000 0.000000
v 27.500000 26.000000 11.000000
vt 0.000000 1.000000
vn 1.000000 0.000000 0.000000
v 27.500000 26.000000 31.000000
vt 1.000000 1.000000
vn 1.000000 0.000000 0.000000
v 27.500000 24.000000 31.000000
vt 1.000000 0.000000
vn 1.000000 0.000000 0.000000
v 26.500000 17.000000 27.000000
vt 0.000000 0.000000
vn -0.000000 0.000000 1.000000
v 25.500000 17.000000 27.000000
vt 1.000000 0.000000
vn -0.000000 0.000000 1.000000
v 26.500000 25.000000 27.000000
vt 0.000000 1.000000
vn -0.000000 0.000000 1.000000
v 25.500000 25.000000 27.000000
vt 1.000000 1.000000
vn -0.000000 0.000000 1.000000
v 26.500000 25.000000 25.000000
vt 0.000000 1.000000
vn -0.000000 1.000000 0.000000
v 25.500000 25.000000 25.000000
vt 1.000000 1.000000
vn -0.000000 1.000000 0.000000
v 26.500000 17.000000 25.000000
vt 0.000000 1.000000
vn -0.000000 0.000000 -1.000000
v 25.500000 17.000000 25.000000
vt 1.000000 1.000000
vn -0.000000 0.000000 -1.000000
v 26.500000 25.000000 27.000000
vt 0.000000 0.000000
vn -0.000000 1.000000 0.000000
v 25.500000 25.000000 27.000000
vt 1.000000 0.000000
vn -0.000000 1.000000 0.000000
v 26.500000 25.000000 25.000000
vt 0.000000 0.000000
vn -0.000000 0.000000 -1.000000
v 25.500000 25.000000 25.000000
vt 1.000000 0.000000
vn -0.000000 0.000000 -1.000000
v 26.500000 17.000000 25.000000
vt 0.000000 0.000000
vn -0.000000 -1.000000 0.000000
v 26.500000 17.000000 27.000000
vt 0.000000 1.000000
vn -0.000000 -1.000000 0.000000
v 25.500000 17.000000 27.000000
vt 1.000000 1.000000
vn -0.000000 -1.000000 0.000000
v 25.500000 17.000000 25.000000
vt 1.000000 0.000000
vn -0.000000 -1.000000 0.000000
v 25.500000 17.000000 27.000000
vt 0.000000 0.000000
vn -1.000000 0.000000 0.000000
v 25.500000 25.000000 27.000000
vt 0.000000 1.000000
vn -1.000000 0.000000 0.000000
v 25.500000 25.000000 25.000000
vt 1.000000 1.000000
vn -1.000000 0.000000 0.000000
v 25.500000 17.000000 25.000000
vt 1.000000 0.000000
vn -1.000000 0.000000 0.000000
v 26.500000 17.000000 25.000000
vt 0.000000 0.000000
vn 1.000000 0.000000 0.000000
v 26.500000 25.000000 25.000000
vt 0.000000 1.000000
vn 1.000000 0.000000 0.000000
v 26.500000 25.000000 27.000000
vt 1.000000 1.000000
vn 1.000000 0.000000 0.000000
v 26.500000 17.000000 27.000000
vt 1.000000 0.000000
vn 1.000000 0.000000 0.000000
v 28.500000 -127.500000 22.000000
vt 0.000000 0.000000
vn -0.000000 0.000000 1.000000
v 23.500000 -127.500000 22.000000
vt 1.000000 0.000000
vn -0.000000 0.000000 1.000000
v 28.500000 27.500000 22.000000
vt 0.000000 1.000000
vn -0.000000 0.000000 1.000000
v 23.500000 27.500000 22.000000
vt 1.000000 1.000000
vn -0.000000 0.000000 1.000000
v 28.500000 27.500000 20.000000
vt 0.000000 1.000000
vn -0.000000 1.000000 0.000000
v 23.500000 27.500000 20.000000
vt 1.000000 1.000000
vn -0.000000 1.000000 0.000000
v 28.500000 -127.500000 20.000000
vt 0.000000 1.000000
vn -0.000000 0.000000 -1.000000
v 23.500000 -127.500000 20.000000
vt 1.000000 1.000000
vn -0.000000 0.000000 -1.000000
v 28.500000 27.500000 22.000000
vt 0.000000 0.000000
vn -0.000000 1.000000 0.000000
v 23.500000 27.500000 22.000000
vt 1.000000 0.000000
vn -0.000000 1.000000 0.000000
v 28.500000 27.500000 20.000000
vt 0.000000 0.000000
vn -0.000000 0.000000 -1.000000
v 23.500000 27.500000 20.000000
vt 1.000000 0.000000
vn -0.000000 0.000000 -1.000000
v 28.500000 -127.500000 20.000000
vt 0.000000 0.000000
vn -0.000000 -1.000000 0.000000
v 28.500000 -127.500000 22.000000
vt 0.000000 1.000000
vn -0.000000 -1.000000 0.000000
v 23.500000 -127.500000 22.000000
vt 1.000000 1.000000
vn -0.000000 -1.000000 0.000000
v 23.500000 -127.500000 20.000000
vt 1.000000 0.000000
vn -0.000000 -1.000000 0.000000
v 23.500000 -127.500000 22.000000
vt 0.000000 0.000000
vn -1.000000 0.000000 0.000000
v 23.500000 27.500000 22.000000
vt 0.000000 1.000000
vn -1.000000 0.000000 0.000000
v 23.500000 27.500000 20.000000
vt 1.000000 1.000000
vn -1.000000 0.000000 0.000000
v 23.500000 -127.500000 20.000000
vt 1.000000 0.000000
vn -1.000000 0.000000 0.000000
v 28.500000 -127.500000 20.000000
vt 0.000000 0.000000
vn 1.000000 0.000000 0.000000
v 28.500000 27.500000 20.000000
vt 0.000000 1.000000
vn 1.000000 0.000000 0.000000
v 28.500000 27.500000 22.000000
vt 1.000000 1.000000
vn 1.000000 0.000000 0.000000
v 28.500000 -127.500000 22.000000
vt 1.000000 0.000000
vn 1.000000 0.000000 0.000000
v 28.500000 -125.000000 18.000000
vt 0.000000 0.000000
vn -0.000000 0.000000 1.000000
v 23.500000 -125.000000 18.000000
vt 1.000000 0.000000
vn -0.000000 0.000000 1.000000
v 28.500000 25.000000 18.000000
vt 0.000000 1.000000
vn -0.000000 0.000000 1.000000
v 23.500000 25.000000 18.000000
vt 1.000000 1.000000
vn -0.000000 0.000000 1.000000
v 28.500000 25.000000 16.000000
vt 0.000000 1.000000
vn -0.000000 1.000000 0.000000
v 23.500000 25.000000 16.000000
vt 1.000000 1.000000
vn -0.000000 1.000000 0.000000
v 28.500000 -125.000000 16.000000
vt 0.000000 1.000000
vn -0.000000 0.000000 -1.000000
v 23.500000 -125.000000 16.000000
vt 1.000000 1.000000
vn -0.000000 0.000000 -1.000000
v 28.500000 25.000000 18.000000
vt 0.000000 0.000000
vn -0.000000 1.000000 0.000000
v 23.500000 25.000000 18.000000
vt 1.000000 0.000000
vn -0.000000 1.000000 0.000000
v 28.500000 25.000000 16.000000
vt 0.000000 0.000000
vn -0.000000 0.000000 -1.000000
v 23.500000 25.000000 16.000000
vt 1.000000 0.000000
vn -0.000000 0.000000 -1.000000
v 28.500000 -125.000000 16.000000
vt 0.000000 0.000000
vn -0.000000 -1.000000 0.000000
v 28.500000 -125.000000 18.000000
vt 0.000000 1.000000
vn -0.000000 -1.000000 0.000000
v 23.500000 -125.000000 18.000000
vt 1.000000 1.000000
vn -0.000000 -1.000000 0.000000
v 23.500000 -125.000000 16.000000
vt 1.000000 0.000000
vn -0.000000 -1.000000 0.000000
v 23.500000 -125.000000 18.000000
vt 0.000000 0.000000
vn -1.000000 0.000000 0.000000
v 23.500000 25.000000 18.000000
vt 0.000000 1.000000
vn -1.000000 0.000000 0.000000
v 23.500000 25.000000 16.000000
vt 1.000000 1.000000
vn -1.000000 0.000000 0.000000
v 23.500000 -125.000000 16.000000
vt 1.000000 0.000000
vn -1.000000 0.000000 0.000000
v 28.500000 -125.000000 16.000000
vt 0.000000 0.000000
vn 1.000000 0.000000 0.000000
v 28.500000 25.000000 16.000000
vt 0.000000 1.000000
vn 1.000000 0.000000 0.000000
v 28.500000 25.000000 18.000000
vt 1.000000 1.000000
vn 1.000000 0.000000 0.000000
v 28.500000 -125.000000 18.000000
vt 1.000000 0.000000
vn 1.000000 0.000000 0.000000
v 24.250000 24.250000 33.500000
vt 0.000000 0.000000
vn -0.000000 0.000000 1.000000
v 23.750000 24.250000 33.500000
vt 1.000000 0.000000
vn -0.000000 0.000000 1.000000
v 24.250000 24.750000 33.500000
vt 0.000000 1.000000
vn -0.000000 0.000000 1.000000
v 23.750000 24.750000 33.500000
vt 1.000000 1.000000
vn -0.000000 0.000000 1.000000
v 24.250000 24.750000 8.500000
vt 0.000000 1.000000
vn -0.000000 1.000000 0.000000
v 23.750000 24.750000 8.500000
vt 1.000000 1.000000
vn -0.000000 1.000000 0.000000
v 24.250000 24.250000 8.500000
vt 0.000000 1.000000
vn -0.000000 0.000000 -1.000000
v 23.750000 24.250000 8.500000
vt 1.000000 1.000000
vn -0.000000 0.000000 -1.000000
v 24.250000 24.750000 33.500000
vt 0.000000 0.000000
vn -0.000000 1.000000 0.000000
v 23.750000 24.750000 33.500000
vt 1.000000 0.000000
vn -0.000000 1.000000 0.000000
v 24.250000 24.750000 8.500000
vt 0.000000 0.000000
vn -0.000000 0.000000 -1.000000
v 23.750000 24.750000 8.500000
vt 1.000000 0.000000
vn -0.000000 0.000000 -1.000000
v 24.250000 24.250000 8.500000
vt 0.000000 0.000000
vn -0.000000 -1.000000 0.000000
v 24.250000 24.250000 33.500000
vt 0.000000 1.000000
vn -0.000000 -1.000000 0.000000
v 23.750000 24.250000 33.500000
vt 1.000000 1.000000
vn -0.000000 -1.000000 0.000000
v 23.750000 24.250000 8.500000
vt 1.000000 0.000000
vn -0.000000 -1.000000 0.000000
v 23.750000 24.250000 33.500000
vt 0.000000 0.000000
vn -1.000000 0.000000 0.000000
v 23.750000 24.750000 33.500000
vt 0.000000 1.000000
vn -1.000000 0.000000 0.000000
v 23.750000 24.750000 8.500000
vt 1.000000 1.000000
vn -1.000000 0.000000 0.000000
v 23.750000 24.250000 8.500000
vt 1.000000 0.000000
vn -1.000000 0.000000 0.000000
v 24.250000 24.250000 8.500000
vt 0.000000 0.000000
vn 1.000000 0.000000 0.000000
v 24.250000 24.750000 8.500000
vt 0.000000 1.000000
vn 1.000000 0.000000 0.000000
v 24.250000 24.750000 33.500000
vt 1.000000 1.000000
vn 1.000000 0.000000 0.000000
v 24.250000 24.250000 33.500000
vt 1.000000 0.000000
vn 1.000000 0.000000 0.000000
v 26.250000 27.000000 21.250000
vt 0.000000 0.000000
vn -0.000000 0.000000 1.000000
v 25.750000 27.000000 21.250000
vt 1.000000 0.000000
vn -0.000000 0.000000 1.000000
v 26.250000 47.000000 21.250000
vt 0.000000 1.000000
vn -0.000000 0.000000 1.000000
v 25.750000 47.000000 21.250000
vt 1.000000 1.000000
vn -0.000000 0.000000 1.000000
v 26.250000 47.000000 20.750000
vt 0.000000 1.000000
vn -0.000000 1.000000 0.000000
v 25.750000 47.000000 20.750000
vt 1.000000 1.000000
vn -0.000000 1.000000 0.000000
v 26.250000 27.000000 20.750000
vt 0.000000 1.000000
vn -0.000000 0.000000 -1.000000
v 25.750000 27.000000 20.750000
vt 1.000000 1.000000
vn -0.000000 0.000000 -1.000000
v 26.250000 47.000000 21.250000
vt 0.000000 0.000000
vn -0.000000 1.000000 0.000000
v 25.750000 47.000000 21.250000
vt 1.000000 0.000000
vn -0.000000 1.000000 0.000000
v 26.250000 47.000000 20.750000
vt 0.000000 0.000000
vn -0.000000 0.000000 -1.000000
v 25.750000 47.000000 20.750000
vt 1.000000 0.000000
vn -0.000000 0.000000 -1.000000
v 26.250000 27.000000 20.750000
vt 0.000000 0.000000
vn -0.000000 -1.000000 0.000000
v 26.250000 27.000000 21.250000
vt 0.000000 1.000000
vn -0.000000 -1.000000 0.000000
v 25.750000 27.000000 21.250000
vt 1.000000 1.000000
vn -0.000000 -1.000000 0.000000
v 25.750000 27.000000 20.750000
vt 1.000000 0.000000
vn -0.000000 -1.000000 0.000000
v 25.750000 27.000000 21.250000
vt 0.000000 0.000000
vn -1.000000 0.000000 0.000000
v 25.750000 47.000000 21.250000
vt 0.000000 1.000000
vn -1.000000 0.000000 0.000000
v 25.750000 47.000000 20.750000
vt 1.000000 1.000000
vn -1.000000 0.000000 0.000000
v 25.750000 27.000000 20.750000
vt 1.000000 0.000000
vn -1.000000 0.000000 0.000000
v 26.250000 27.000000 20.750000
vt 0.000000 0.000000
vn 1.000000 0.000000 0.000000
v 26.250000 47.000000 20.750000
vt 0.000000 1.000000
vn 1.000000 0.000000 0.000000
v 26.250000 47.000000 21.250000
vt 1.000000 1.000000
vn 1.000000 0.000000 0.000000
v 26.250000 27.000000 21.250000
vt 1.000000 0.000000
vn 1.000000 0.000000 0.000000
v 24.250000 25.250000 33.500000
vt 0.000000 0.000000
vn -0.000000 0.000000 1.000000
v 23.750000 25.250000 33.500000
vt 1.000000 0.000000
vn -0.000000 0.000000 1.000000
v 24.250000 25.750000 33.500000
vt 0.000000 1.000000
vn -0.000000 0.000000 1.000000
v 23.750000 25.750000 33.500000
vt 1.000000 1.000000
vn -0.000000 0.000000 1.000000
v 24.250000 25.750000 8.500000
vt 0.000000 1.000000
vn -0.000000 1.000000 0.000000
v 23.750000 25.750000 8.500000
vt 1.000000 1.000000
vn -0.000000 1.000000 0.000000
v 24.250000 25.250000 8.500000
vt 0.000000 1.000000
vn -0.000000 0.000000 -1.000000
v 23.750000 25.250000 8.500000
vt 1.000000 1.000000
vn -0.000000 0.000000 -1.000000
v 24.250000 25.750000 33.500000
vt 0.000000 0.000000
vn -0.000000 1.000000 0.000000
v 23.750000 25.750000 33.500000
vt 1.000000 0.000000
vn -0.000000 1.000000 0.000000
v 24.250000 25.750000 8.500000
vt 0.000000 0.000000
vn -0.000000 0.000000 -1.000000
v 23.750000 25.750000 8.500000
vt 1.000000 0.000000
vn -0.000000 0.000000 -1.000000
v 24.250000 25.250000 8.500000
vt 0.000000 0.000000
vn -0.000000 -1.000000 0.000000
v 24.250000 25.250000 33.500000
vt 0.000000 1.000000
vn -0.000000 -1.000000 0.000000
v 23.750000 25.250000 33.500000
vt 1.000000 1.000000
vn -0.000000 -1.000000 0.000000
v 23.750000 25.250000 8.500000
vt 1.000000 0.000000
vn -0.000000 -1.000000 0.000000
v 23.750000 25.250000 33.500000
vt 0.000000 0.000000
vn -1.000000 0.000000 0.000000
v 23.750000 25.750000 33.500000
vt 0.000000 1.000000
vn -1.000000 0.000000 0.000000
v 23.750000 25.750000 8.500000
vt 1.000000 1.000000
vn -1.000000 0.000000 0.000000
v 23.750000 25.250000 8.500000
vt 1.000000 0.000000
vn -1.000000 0.000000 0.000000
v 24.250000 25.250000 8.500000
vt 0.000000 0.000000
vn 1.000000 0.000000 0.000000
v 24.250000 25.750000 8.500000
vt 0.000000 1.000000
vn 1.000000 0.000000 0.000000
v 24.250000 25.750000 33.500000
vt 1.000000 1.000000
vn 1.000000 0.000000 0.000000
v 24.250000 25.250000 33.500000
vt 1.000000 0.000000
vn 1.000000 0.000000 0.000000
v 32.500000 25.000000 27.500000
vt 0.000000 0.000000
vn -0.000000 0.000000 1.000000
v 23.500000 25.000000 27.500000
vt 1.000000 0.000000
vn -0.000000 0.000000 1.000000
v 32.500000 27.000000 27.500000
vt 0.000000 1.000000
vn -0.000000 0.000000 1.000000
v 23.500000 27.000000 27.500000
vt 1.000000 1.000000
vn -0.000000 0.000000 1.000000
v 32.500000 27.000000 24.500000
vt 0.000000 1.000000
vn -0.000000 1.000000 0.000000
v 23.500000 27.000000 24.500000
vt 1.000000 1.000000
vn -0.000000 1.000000 0.000000
v 32.500000 25.000000 24.500000
vt 0.000000 1.000000
vn -0.000000 0.000000 -1.000000
v 23.500000 25.000000 24.500000
vt 1.000000 1.000000
vn -0.000000 0.000000 -1.000000
v 32.500000 27.000000 27.500000
vt 0.000000 0.000000
vn -0.000000 1.000000 0.000000
v 23.500000 27.000000 27.500000
vt 1.000000 0.000000
vn -0.000000 1.000000 0.000000
v 32.500000 27.000000 24.500000
vt 0.000000 0.000000
vn -0.000000 0.000000 -1.000000
v 23.500000 27.000000 24.500000
vt 1.000000 0.000000
vn -0.000000 0.000000 -1.000000
v 32.500000 25.000000 24.500000
vt 0.000000 0.000000
vn -0.000000 -1.000000 0.000000
v 32.500000 25.000000 27.500000
vt 0.000000 1.000000
vn -0.000000 -1.000000 0.000000
v 23.500000 25.000000 27.500000
vt 1.000000 1.000000
vn -0.000000 -1.000000 0.000000
v 23.500000 25.000000 24.500000
vt 1.000000 0.000000
vn -0.000000 -1.000000 0.000000
v 23.500000 25.000000 27.500000
vt 0.000000 0.000000
vn -1.000000 0.000000 0.000000
v 23.500000 27.000000 27.500000
vt 0.000000 1.000000
vn -1.000000 0.000000 0.000000
v 23.500000 27.000000 24.500000
vt 1.000000 1.000000
vn -1.000000 0.000000 0.000000
v 23.500000 25.000000 24.500000
vt 1.000000 0.000000
vn -1.000000 0.000000 0.000000
v 32.500000 25.000000 24.500000
vt 0.000000 0.000000
vn 1.000000 0.000000 0.000000
v 32.500000 27.000000 24.500000
vt 0.000000 1.000000
vn 1.000000 0.000000 0.000000
v 32.500000 27.000000 27.500000
vt 1.000000 1.000000
vn 1.000000 0.000000 0.000000
v 32.500000 25.000000 27.500000
vt 1.000000 0.000000
vn 1.000000 0.000000 0.000000
# Faces (1 to 216)
g CombinedMesh_0
f -196/-196/-196 -194/-194/-194 -193/-193/-193
f -196/-196/-196 -195/-195/-195 -194/-194/-194
f -200/-200/-200 -198/-198/-198 -197/-197/-197
f -200/-200/-200 -199/-199/-199 -198/-198/-198
f -204/-204/-204 -202/-202/-202 -201/-201/-201
f -204/-204/-204 -203/-203/-203 -202/-202/-202
f -206/-206/-206 -209/-209/-209 -205/-205/-205
f -206/-206/-206 -210/-210/-210 -209/-209/-209
f -208/-208/-208 -211/-211/-211 -207/-207/-207
f -208/-208/-208 -212/-212/-212 -211/-211/-211
f -216/-216/-216 -213/-213/-213 -215/-215/-215
f -216/-216/-216 -214/-214/-214 -213/-213/-213
f -172/-172/-172 -170/-170/-170 -169/-169/-169
f -172/-172/-172 -171/-171/-171 -170/-170/-170
f -176/-176/-176 -174/-174/-174 -173/-173/-173
f -176/-176/-176 -175/-175/-175 -174/-174/-174
f -180/-180/-180 -178/-178/-178 -177/-177/-177
f -180/-180/-180 -179/-179/-179 -178/-178/-178
f -182/-182/-182 -185/-185/-185 -181/-181/-181
f -182/-182/-182 -186/-186/-186 -185/-185/-185
f -184/-184/-184 -187/-187/-187 -183/-183/-183
f -184/-184/-184 -188/-188/-188 -187/-187/-187
f -192/-192/-192 -189/-189/-189 -191/-191/-191
f -192/-192/-192 -190/-190/-190 -189/-189/-189
f -148/-148/-148 -146/-146/-146 -145/-145/-145
f -148/-148/-148 -147/-147/-147 -146/-146/-146
f -152/-152/-152 -150/-150/-150 -149/-149/-149
f -152/-152/-152 -151/-151/-151 -150/-150/-150
f -156/-156/-156 -154/-154/-154 -153/-153/-153
f -156/-156/-156 -155/-155/-155 -154/-154/-154
f -158/-158/-158 -161/-161/-161 -157/-157/-157
f -158/-158/-158 -162/-162/-162 -161/-161/-161
f -160/-160/-160 -163/-163/-163 -159/-159/-159
f -160/-160/-160 -164/-164/-164 -163/-163/-163
f -168/-168/-168 -165/-165/-165 -167/-167/-167
f -168/-168/-168 -166/-166/-166 -165/-165/-165
f -124/-124/-124 -122/-122/-122 -121/-121/-121
f -124/-124/-124 -123/-123/-123 -122/-122/-122
f -128/-128/-128 -126/-126/-126 -125/-125/-125
f -128/-128/-128 -127/-127/-127 -126/-126/-126
f -132/-132/-132 -130/-130/-130 -129/-129/-129
f -132/-132/-132 -131/-131/-131 -130/-130/-130
f -134/-134/-134 -137/-137/-137 -133/-133/-133
f -134/-134/-134 -138/-138/-138 -137/-137/-137
f -136/-136/-136 -139/-139/-139 -135/-135/-135
f -136/-136/-136 -140/-140/-140 -139/-139/-139
f -144/-144/-144 -141/-141/-141 -143/-143/-143
f -144/-144/-144 -142/-142/-142 -141/-141/-141
f -100/-100/-100 -98/-98/-98 -97/-97/-97
f -100/-100/-100 -99/-99/-99 -98/-98/-98
f -104/-104/-104 -102/-102/-102 -101/-101/-101
f -104/-104/-104 -103/-103/-103 -102/-102/-102
f -108/-108/-108 -106/-106/-106 -105/-105/-105
f -108/-108/-108 -107/-107/-107 -106/-106/-106
f -110/-110/-110 -113/-113/-113 -109/-109/-109
f -110/-110/-110 -114/-114/-114 -113/-113/-113
f -112/-112/-112 -115/-115/-115 -111/-111/-111
f -112/-112/-112 -116/-116/-116 -115/-115/-115
f -120/-120/-120 -117/-117/-117 -119/-119/-119
f -120/-120/-120 -118/-118/-118 -117/-117/-117
f -76/-76/-76 -74/-74/-74 -73/-73/-73
f -76/-76/-76 -75/-75/-75 -74/-74/-74
f -80/-80/-80 -78/-78/-78 -77/-77/-77
f -80/-80/-80 -79/-79/-79 -78/-78/-78
f -84/-84/-84 -82/-82/-82 -81/-81/-81
f -84/-84/-84 -83/-83/-83 -82/-82/-82
f -86/-86/-86 -89/-89/-89 -85/-85/-85
f -86/-86/-86 -90/-90/-90 -89/-89/-89
f -88/-88/-88 -91/-91/-91 -87/-87/-87
f -88/-88/-88 -92/-92/-92 -91/-91/-91
f -96/-96/-96 -93/-93/-93 -95/-95/-95
f -96/-96/-96 -94/-94/-94 -93/-93/-93
f -52/-52/-52 -50/-50/-50 -49/-49/-49
f -52/-52/-52 -51/-51/-51 -50/-50/-50
f -56/-56/-56 -54/-54/-54 -53/-53/-53
f -56/-56/-56 -55/-55/-55 -54/-54/-54
f -60/-60/-60 -58/-58/-58 -57/-57/-57
f -60/-60/-60 -59/-59/-59 -58/-58/-58
f -62/-62/-62 -65/-65/-65 -61/-61/-61
f -62/-62/-62 -66/-66/-66 -65/-65/-65
f -64/-64/-64 -67/-67/-67 -63/-63/-63
f -64/-64/-64 -68/-68/-68 -67/-67/-67
f -72/-72/-72 -69/-69/-69 -71/-71/-71
f -72/-72/-72 -70/-70/-70 -69/-69/-69
f -28/-28/-28 -26/-26/-26 -25/-25/-25
f -28/-28/-28 -27/-27/-27 -26/-26/-26
f -32/-32/-32 -30/-30/-30 -29/-29/-29
f -32/-32/-32 -31/-31/-31 -30/-30/-30
f -36/-36/-36 -34/-34/-34 -33/-33/-33
f -36/-36/-36 -35/-35/-35 -34/-34/-34
f -38/-38/-38 -41/-41/-41 -37/-37/-37
f -38/-38/-38 -42/-42/-42 -41/-41/-41
f -40/-40/-40 -43/-43/-43 -39/-39/-39
f -40/-40/-40 -44/-44/-44 -43/-43/-43
f -48/-48/-48 -45/-45/-45 -47/-47/-47
f -48/-48/-48 -46/-46/-46 -45/-45/-45
f -4/-4/-4 -2/-2/-2 -1/-1/-1
f -4/-4/-4 -3/-3/-3 -2/-2/-2
f -8/-8/-8 -6/-6/-6 -5/-5/-5
f -8/-8/-8 -7/-7/-7 -6/-6/-6
f -12/-12/-12 -10/-10/-10 -9/-9/-9
f -12/-12/-12 -11/-11/-11 -10/-10/-10
f -14/-14/-14 -17/-17/-17 -13/-13/-13
f -14/-14/-14 -18/-18/-18 -17/-17/-17
f -16/-16/-16 -19/-19/-19 -15/-15/-15
f -16/-16/-16 -20/-20/-20 -19/-19/-19
f -24/-24/-24 -21/-21/-21 -23/-23/-23
f -24/-24/-24 -22/-22/-22 -21/-21/-21

