# Mesh "CombinedMesh" exported with Unity Assets Bundle Extractor; 72 vertices, 108 indices, 448 bits per vertex
g CombinedMesh
# SubMesh 0
# Vertices
v -8.149976 -0.150000 -195.000381
vt 0.000000 0.000000
vn -1.000000 0.000000 -0.000000
v -8.150023 -0.150000 205.000381
vt 1.000000 0.000000
vn -1.000000 0.000000 -0.000000
v -8.149976 0.150000 -195.000381
vt 0.000000 1.000000
vn -1.000000 0.000000 -0.000000
v -8.150023 0.150000 205.000381
vt 1.000000 1.000000
vn -1.000000 0.000000 -0.000000
v -7.849976 0.150000 -195.000381
vt 0.000000 1.000000
vn -0.000000 1.000000 0.000000
v -7.850024 0.150000 205.000381
vt 1.000000 1.000000
vn -0.000000 1.000000 0.000000
v -7.849976 -0.150000 -195.000381
vt 0.000000 1.000000
vn 1.000000 0.000000 0.000000
v -7.850024 -0.150000 205.000381
vt 1.000000 1.000000
vn 1.000000 0.000000 0.000000
v -8.149976 0.150000 -195.000381
vt 0.000000 0.000000
vn -0.000000 1.000000 0.000000
v -8.150023 0.150000 205.000381
vt 1.000000 0.000000
vn -0.000000 1.000000 0.000000
v -7.849976 0.150000 -195.000381
vt 0.000000 0.000000
vn 1.000000 0.000000 0.000000
v -7.850024 0.150000 205.000381
vt 1.000000 0.000000
vn 1.000000 0.000000 0.000000
v -7.849976 -0.150000 -195.000381
vt 0.000000 0.000000
vn -0.000000 -1.000000 -0.000000
v -8.149976 -0.150000 -195.000381
vt 0.000000 1.000000
vn -0.000000 -1.000000 -0.000000
v -8.150023 -0.150000 205.000381
vt 1.000000 1.000000
vn -0.000000 -1.000000 -0.000000
v -7.850024 -0.150000 205.000381
vt 1.000000 0.000000
vn -0.000000 -1.000000 -0.000000
v -8.150023 -0.150000 205.000381
vt 0.000000 0.000000
vn -0.000000 0.000000 1.000000
v -8.150023 0.150000 205.000381
vt 0.000000 1.000000
vn -0.000000 0.000000 1.000000
v -7.850024 0.150000 205.000381
vt 1.000000 1.000000
vn -0.000000 0.000000 1.000000
v -7.850024 -0.150000 205.000381
vt 1.000000 0.000000
vn -0.000000 0.000000 1.000000
v -7.849976 -0.150000 -195.000381
vt 0.000000 0.000000
vn 0.000000 0.000000 -1.000000
v -7.849976 0.150000 -195.000381
vt 0.000000 1.000000
vn 0.000000 0.000000 -1.000000
v -8.149976 0.150000 -195.000381
vt 1.000000 1.000000
vn 0.000000 0.000000 -1.000000
v -8.149976 -0.150000 -195.000381
vt 1.000000 0.000000
vn 0.000000 0.000000 -1.000000
v 7.850024 -0.150000 -195.000214
vt 0.000000 0.000000
vn -1.000000 0.000000 -0.000000
v 7.849976 -0.150000 205.000214
vt 1.000000 0.000000
vn -1.000000 0.000000 -0.000000
v 7.850024 0.150000 -195.000214
vt 0.000000 1.000000
vn -1.000000 0.000000 -0.000000
v 7.849976 0.150000 205.000214
vt 1.000000 1.000000
vn -1.000000 0.000000 -0.000000
v 8.150023 0.150000 -195.000214
vt 0.000000 1.000000
vn -0.000000 1.000000 0.000000
v 8.149976 0.150000 205.000214
vt 1.000000 1.000000
vn -0.000000 1.000000 0.000000
v 8.150023 -0.150000 -195.000214
vt 0.000000 1.000000
vn 1.000000 0.000000 0.000000
v 8.149976 -0.150000 205.000214
vt 1.000000 1.000000
vn 1.000000 0.000000 0.000000
v 7.850024 0.150000 -195.000214
vt 0.000000 0.000000
vn -0.000000 1.000000 0.000000
v 7.849976 0.150000 205.000214
vt 1.000000 0.000000
vn -0.000000 1.000000 0.000000
v 8.150023 0.150000 -195.000214
vt 0.000000 0.000000
vn 1.000000 0.000000 0.000000
v 8.149976 0.150000 205.000214
vt 1.000000 0.000000
vn 1.000000 0.000000 0.000000
v 8.150023 -0.150000 -195.000214
vt 0.000000 0.000000
vn -0.000000 -1.000000 -0.000000
v 7.850024 -0.150000 -195.000214
vt 0.000000 1.000000
vn -0.000000 -1.000000 -0.000000
v 7.849976 -0.150000 205.000214
vt 1.000000 1.000000
vn -0.000000 -1.000000 -0.000000
v 8.149976 -0.150000 205.000214
vt 1.000000 0.000000
vn -0.000000 -1.000000 -0.000000
v 7.849976 -0.150000 205.000214
vt 0.000000 0.000000
vn -0.000000 0.000000 1.000000
v 7.849976 0.150000 205.000214
vt 0.000000 1.000000
vn -0.000000 0.000000 1.000000
v 8.149976 0.150000 205.000214
vt 1.000000 1.000000
vn -0.000000 0.000000 1.000000
v 8.149976 -0.150000 205.000214
vt 1.000000 0.000000
vn -0.000000 0.000000 1.000000
v 8.150023 -0.150000 -195.000214
vt 0.000000 0.000000
vn 0.000000 0.000000 -1.000000
v 8.150023 0.150000 -195.000214
vt 0.000000 1.000000
vn 0.000000 0.000000 -1.000000
v 7.850024 0.150000 -195.000214
vt 1.000000 1.000000
vn 0.000000 0.000000 -1.000000
v 7.850024 -0.150000 -195.000214
vt 1.000000 0.000000
vn 0.000000 0.000000 -1.000000
v -0.149976 3.850000 -195.000031
vt 0.000000 0.000000
vn -1.000000 0.000000 -0.000000
v -0.150024 3.850000 205.000031
vt 1.000000 0.000000
vn -1.000000 0.000000 -0.000000
v -0.149976 4.150000 -195.000031
vt 0.000000 1.000000
vn -1.000000 0.000000 -0.000000
v -0.150024 4.150000 205.000031
vt 1.000000 1.000000
vn -1.000000 0.000000 -0.000000
v 0.150024 4.150000 -195.000031
vt 0.000000 1.000000
vn -0.000000 1.000000 0.000000
v 0.149976 4.150000 205.000031
vt 1.000000 1.000000
vn -0.000000 1.000000 0.000000
v 0.150024 3.850000 -195.000031
vt 0.000000 1.000000
vn 1.000000 0.000000 0.000000
v 0.149976 3.850000 205.000031
vt 1.000000 1.000000
vn 1.000000 0.000000 0.000000
v -0.149976 4.150000 -195.000031
vt 0.000000 0.000000
vn -0.000000 1.000000 0.000000
v -0.150024 4.150000 205.000031
vt 1.000000 0.000000
vn -0.000000 1.000000 0.000000
v 0.150024 4.150000 -195.000031
vt 0.000000 0.000000
vn 1.000000 0.000000 0.000000
v 0.149976 4.150000 205.000031
vt 1.000000 0.000000
vn 1.000000 0.000000 0.000000
v 0.150024 3.850000 -195.000031
vt 0.000000 0.000000
vn -0.000000 -1.000000 -0.000000
v -0.149976 3.850000 -195.000031
vt 0.000000 1.000000
vn -0.000000 -1.000000 -0.000000
v -0.150024 3.850000 205.000031
vt 1.000000 1.000000
vn -0.000000 -1.000000 -0.000000
v 0.149976 3.850000 205.000031
vt 1.000000 0.000000
vn -0.000000 -1.000000 -0.000000
v -0.150024 3.850000 205.000031
vt 0.000000 0.000000
vn -0.000000 0.000000 1.000000
v -0.150024 4.150000 205.000031
vt 0.000000 1.000000
vn -0.000000 0.000000 1.000000
v 0.149976 4.150000 205.000031
vt 1.000000 1.000000
vn -0.000000 0.000000 1.000000
v 0.149976 3.850000 205.000031
vt 1.000000 0.000000
vn -0.000000 0.000000 1.000000
v 0.150024 3.850000 -195.000031
vt 0.000000 0.000000
vn 0.000000 0.000000 -1.000000
v 0.150024 4.150000 -195.000031
vt 0.000000 1.000000
vn 0.000000 0.000000 -1.000000
v -0.149976 4.150000 -195.000031
vt 1.000000 1.000000
vn 0.000000 0.000000 -1.000000
v -0.149976 3.850000 -195.000031
vt 1.000000 0.000000
vn 0.000000 0.000000 -1.000000
# Faces (1 to 72)
g CombinedMesh_0
f -69/-69/-69 -70/-70/-70 -72/-72/-72
f -71/-71/-71 -69/-69/-69 -72/-72/-72
f -67/-67/-67 -68/-68/-68 -64/-64/-64
f -63/-63/-63 -67/-67/-67 -64/-64/-64
f -65/-65/-65 -66/-66/-66 -62/-62/-62
f -61/-61/-61 -65/-65/-65 -62/-62/-62
f -58/-58/-58 -59/-59/-59 -60/-60/-60
f -57/-57/-57 -58/-58/-58 -60/-60/-60
f -54/-54/-54 -55/-55/-55 -56/-56/-56
f -53/-53/-53 -54/-54/-54 -56/-56/-56
f -50/-50/-50 -51/-51/-51 -52/-52/-52
f -49/-49/-49 -50/-50/-50 -52/-52/-52
f -45/-45/-45 -46/-46/-46 -48/-48/-48
f -47/-47/-47 -45/-45/-45 -48/-48/-48
f -43/-43/-43 -44/-44/-44 -40/-40/-40
f -39/-39/-39 -43/-43/-43 -40/-40/-40
f -41/-41/-41 -42/-42/-42 -38/-38/-38
f -37/-37/-37 -41/-41/-41 -38/-38/-38
f -34/-34/-34 -35/-35/-35 -36/-36/-36
f -33/-33/-33 -34/-34/-34 -36/-36/-36
f -30/-30/-30 -31/-31/-31 -32/-32/-32
f -29/-29/-29 -30/-30/-30 -32/-32/-32
f -26/-26/-26 -27/-27/-27 -28/-28/-28
f -25/-25/-25 -26/-26/-26 -28/-28/-28
f -21/-21/-21 -22/-22/-22 -24/-24/-24
f -23/-23/-23 -21/-21/-21 -24/-24/-24
f -19/-19/-19 -20/-20/-20 -16/-16/-16
f -15/-15/-15 -19/-19/-19 -16/-16/-16
f -17/-17/-17 -18/-18/-18 -14/-14/-14
f -13/-13/-13 -17/-17/-17 -14/-14/-14
f -10/-10/-10 -11/-11/-11 -12/-12/-12
f -9/-9/-9 -10/-10/-10 -12/-12/-12
f -6/-6/-6 -7/-7/-7 -8/-8/-8
f -5/-5/-5 -6/-6/-6 -8/-8/-8
f -2/-2/-2 -3/-3/-3 -4/-4/-4
f -1/-1/-1 -2/-2/-2 -4/-4/-4

