# Mesh "CombinedMesh" exported with Unity Assets Bundle Extractor; 192 vertices, 288 indices, 448 bits per vertex
g CombinedMesh
# SubMesh 0
# Vertices
v -3.499976 188.110062 -97.934395
vt 0.000000 0.000000
vn 0.000000 0.342020 0.939693
v -3.500024 -187.768051 38.874092
vt 1.000000 0.000000
vn 0.000000 0.342020 0.939693
v -2.499976 188.110062 -97.934395
vt 0.000000 1.000000
vn 0.000000 0.342020 0.939693
v -2.500024 -187.768051 38.874092
vt 1.000000 1.000000
vn 0.000000 0.342020 0.939693
v -2.499976 187.768051 -98.874092
vt 0.000000 1.000000
vn 1.000000 -0.000000 0.000000
v -2.500024 -188.110062 37.934395
vt 1.000000 1.000000
vn 1.000000 -0.000000 0.000000
v -3.499976 187.768051 -98.874092
vt 0.000000 1.000000
vn -0.000000 -0.342020 -0.939693
v -3.500024 -188.110062 37.934395
vt 1.000000 1.000000
vn -0.000000 -0.342020 -0.939693
v -2.499976 188.110062 -97.934395
vt 0.000000 0.000000
vn 1.000000 -0.000000 0.000000
v -2.500024 -187.768051 38.874092
vt 1.000000 0.000000
vn 1.000000 -0.000000 0.000000
v -2.499976 187.768051 -98.874092
vt 0.000000 0.000000
vn -0.000000 -0.342020 -0.939693
v -2.500024 -188.110062 37.934395
vt 1.000000 0.000000
vn -0.000000 -0.342020 -0.939693
v -3.499976 187.768051 -98.874092
vt 0.000000 0.000000
vn -1.000000 0.000000 -0.000000
v -3.499976 188.110062 -97.934395
vt 0.000000 1.000000
vn -1.000000 0.000000 -0.000000
v -3.500024 -187.768051 38.874092
vt 1.000000 1.000000
vn -1.000000 0.000000 -0.000000
v -3.500024 -188.110062 37.934395
vt 1.000000 0.000000
vn -1.000000 0.000000 -0.000000
v -3.500024 -187.768051 38.874092
vt 0.000000 0.000000
vn -0.000000 -0.939692 0.342020
v -2.500024 -187.768051 38.874092
vt 0.000000 1.000000
vn -0.000000 -0.939692 0.342020
v -2.500024 -188.110062 37.934395
vt 1.000000 1.000000
vn -0.000000 -0.939692 0.342020
v -3.500024 -188.110062 37.934395
vt 1.000000 0.000000
vn -0.000000 -0.939692 0.342020
v -3.499976 187.768051 -98.874092
vt 0.000000 0.000000
vn 0.000000 0.939692 -0.342020
v -2.499976 187.768051 -98.874092
vt 0.000000 1.000000
vn 0.000000 0.939692 -0.342020
v -2.499976 188.110062 -97.934395
vt 1.000000 1.000000
vn 0.000000 0.939692 -0.342020
v -3.499976 188.110062 -97.934395
vt 1.000000 0.000000
vn 0.000000 0.939692 -0.342020
v 2.500024 188.109863 -87.934326
vt 0.000000 0.000000
vn 0.000000 0.342020 0.939693
v 2.499976 -187.767853 48.874023
vt 1.000000 0.000000
vn 0.000000 0.342020 0.939693
v 3.500024 188.109863 -87.934326
vt 0.000000 1.000000
vn 0.000000 0.342020 0.939693
v 3.499976 -187.767853 48.874023
vt 1.000000 1.000000
vn 0.000000 0.342020 0.939693
v 3.500024 187.767853 -88.874023
vt 0.000000 1.000000
vn 1.000000 -0.000000 0.000000
v 3.499976 -188.109863 47.934326
vt 1.000000 1.000000
vn 1.000000 -0.000000 0.000000
v 2.500024 187.767853 -88.874023
vt 0.000000 1.000000
vn -0.000000 -0.342020 -0.939693
v 2.499976 -188.109863 47.934326
vt 1.000000 1.000000
vn -0.000000 -0.342020 -0.939693
v 3.500024 188.109863 -87.934326
vt 0.000000 0.000000
vn 1.000000 -0.000000 0.000000
v 3.499976 -187.767853 48.874023
vt 1.000000 0.000000
vn 1.000000 -0.000000 0.000000
v 3.500024 187.767853 -88.874023
vt 0.000000 0.000000
vn -0.000000 -0.342020 -0.939693
v 3.499976 -188.109863 47.934326
vt 1.000000 0.000000
vn -0.000000 -0.342020 -0.939693
v 2.500024 187.767853 -88.874023
vt 0.000000 0.000000
vn -1.000000 0.000000 -0.000000
v 2.500024 188.109863 -87.934326
vt 0.000000 1.000000
vn -1.000000 0.000000 -0.000000
v 2.499976 -187.767853 48.874023
vt 1.000000 1.000000
vn -1.000000 0.000000 -0.000000
v 2.499976 -188.109863 47.934326
vt 1.000000 0.000000
vn -1.000000 0.000000 -0.000000
v 2.499976 -187.767853 48.874023
vt 0.000000 0.000000
vn -0.000000 -0.939693 0.342020
v 3.499976 -187.767853 48.874023
vt 0.000000 1.000000
vn -0.000000 -0.939693 0.342020
v 3.499976 -188.109863 47.934326
vt 1.000000 1.000000
vn -0.000000 -0.939693 0.342020
v 2.499976 -188.109863 47.934326
vt 1.000000 0.000000
vn -0.000000 -0.939693 0.342020
v 2.500024 187.767853 -88.874023
vt 0.000000 0.000000
vn 0.000000 0.939693 -0.342020
v 3.500024 187.767853 -88.874023
vt 0.000000 1.000000
vn 0.000000 0.939693 -0.342020
v 3.500024 188.109863 -87.934326
vt 1.000000 1.000000
vn 0.000000 0.939693 -0.342020
v 2.500024 188.109863 -87.934326
vt 1.000000 0.000000
vn 0.000000 0.939693 -0.342020
v -9.499976 200.000763 -41.500000
vt 0.000000 0.000000
vn -0.000000 0.000000 1.000000
v -9.500024 -200.000763 -41.500000
vt 1.000000 0.000000
vn -0.000000 0.000000 1.000000
v -8.499976 200.000763 -41.500000
vt 0.000000 1.000000
vn -0.000000 0.000000 1.000000
v -8.500024 -200.000763 -41.500000
vt 1.000000 1.000000
vn -0.000000 0.000000 1.000000
v -8.499976 200.000763 -42.500000
vt 0.000000 1.000000
vn 1.000000 -0.000000 0.000000
v -8.500024 -200.000763 -42.500000
vt 1.000000 1.000000
vn 1.000000 -0.000000 0.000000
v -9.499976 200.000763 -42.500000
vt 0.000000 1.000000
vn 0.000000 0.000000 -1.000000
v -9.500024 -200.000763 -42.500000
vt 1.000000 1.000000
vn 0.000000 0.000000 -1.000000
v -8.499976 200.000763 -41.500000
vt 0.000000 0.000000
vn 1.000000 -0.000000 0.000000
v -8.500024 -200.000763 -41.500000
vt 1.000000 0.000000
vn 1.000000 -0.000000 0.000000
v -8.499976 200.000763 -42.500000
vt 0.000000 0.000000
vn 0.000000 0.000000 -1.000000
v -8.500024 -200.000763 -42.500000
vt 1.000000 0.000000
vn 0.000000 0.000000 -1.000000
v -9.499976 200.000763 -42.500000
vt 0.000000 0.000000
vn -1.000000 0.000000 0.000000
v -9.499976 200.000763 -41.500000
vt 0.000000 1.000000
vn -1.000000 0.000000 0.000000
v -9.500024 -200.000763 -41.500000
vt 1.000000 1.000000
vn -1.000000 0.000000 0.000000
v -9.500024 -200.000763 -42.500000
vt 1.000000 0.000000
vn -1.000000 0.000000 0.000000
v -9.500024 -200.000763 -41.500000
vt 0.000000 0.000000
vn -0.000000 -1.000000 0.000000
v -8.500024 -200.000763 -41.500000
vt 0.000000 1.000000
vn -0.000000 -1.000000 0.000000
v -8.500024 -200.000763 -42.500000
vt 1.000000 1.000000
vn -0.000000 -1.000000 0.000000
v -9.500024 -200.000763 -42.500000
vt 1.000000 0.000000
vn -0.000000 -1.000000 0.000000
v -9.499976 200.000763 -42.500000
vt 0.000000 0.000000
vn 0.000000 1.000000 0.000000
v -8.499976 200.000763 -42.500000
vt 0.000000 1.000000
vn 0.000000 1.000000 0.000000
v -8.499976 200.000763 -41.500000
vt 1.000000 1.000000
vn 0.000000 1.000000 0.000000
v -9.499976 200.000763 -41.500000
vt 1.000000 0.000000
vn 0.000000 1.000000 0.000000
v 2.500024 188.110062 -97.934395
vt 0.000000 0.000000
vn 0.000000 0.342020 0.939693
v 2.499976 -187.768051 38.874092
vt 1.000000 0.000000
vn 0.000000 0.342020 0.939693
v 3.500024 188.110062 -97.934395
vt 0.000000 1.000000
vn 0.000000 0.342020 0.939693
v 3.499976 -187.768051 38.874092
vt 1.000000 1.000000
vn 0.000000 0.342020 0.939693
v 3.500024 187.768051 -98.874092
vt 0.000000 1.000000
vn 1.000000 -0.000000 0.000000
v 3.499976 -188.110062 37.934395
vt 1.000000 1.000000
vn 1.000000 -0.000000 0.000000
v 2.500024 187.768051 -98.874092
vt 0.000000 1.000000
vn -0.000000 -0.342020 -0.939693
v 2.499976 -188.110062 37.934395
vt 1.000000 1.000000
vn -0.000000 -0.342020 -0.939693
v 3.500024 188.110062 -97.934395
vt 0.000000 0.000000
vn 1.000000 -0.000000 0.000000
v 3.499976 -187.768051 38.874092
vt 1.000000 0.000000
vn 1.000000 -0.000000 0.000000
v 3.500024 187.768051 -98.874092
vt 0.000000 0.000000
vn -0.000000 -0.342020 -0.939693
v 3.499976 -188.110062 37.934395
vt 1.000000 0.000000
vn -0.000000 -0.342020 -0.939693
v 2.500024 187.768051 -98.874092
vt 0.000000 0.000000
vn -1.000000 0.000000 -0.000000
v 2.500024 188.110062 -97.934395
vt 0.000000 1.000000
vn -1.000000 0.000000 -0.000000
v 2.499976 -187.768051 38.874092
vt 1.000000 1.000000
vn -1.000000 0.000000 -0.000000
v 2.499976 -188.110062 37.934395
vt 1.000000 0.000000
vn -1.000000 0.000000 -0.000000
v 2.499976 -187.768051 38.874092
vt 0.000000 0.000000
vn -0.000000 -0.939692 0.342020
v 3.499976 -187.768051 38.874092
vt 0.000000 1.000000
vn -0.000000 -0.939692 0.342020
v 3.499976 -188.110062 37.934395
vt 1.000000 1.000000
vn -0.000000 -0.939692 0.342020
v 2.499976 -188.110062 37.934395
vt 1.000000 0.000000
vn -0.000000 -0.939692 0.342020
v 2.500024 187.768051 -98.874092
vt 0.000000 0.000000
vn 0.000000 0.939692 -0.342020
v 3.500024 187.768051 -98.874092
vt 0.000000 1.000000
vn 0.000000 0.939692 -0.342020
v 3.500024 188.110062 -97.934395
vt 1.000000 1.000000
vn 0.000000 0.939692 -0.342020
v 2.500024 188.110062 -97.934395
vt 1.000000 0.000000
vn 0.000000 0.939692 -0.342020
v 8.500024 200.000946 -41.500000
vt 0.000000 0.000000
vn -0.000000 0.000000 1.000000
v 8.499976 -200.000946 -41.500000
vt 1.000000 0.000000
vn -0.000000 0.000000 1.000000
v 9.500024 200.000946 -41.500000
vt 0.000000 1.000000
vn -0.000000 0.000000 1.000000
v 9.499976 -200.000946 -41.500000
vt 1.000000 1.000000
vn -0.000000 0.000000 1.000000
v 9.500024 200.000946 -42.500000
vt 0.000000 1.000000
vn 1.000000 -0.000000 0.000000
v 9.499976 -200.000946 -42.500000
vt 1.000000 1.000000
vn 1.000000 -0.000000 0.000000
v 8.500024 200.000946 -42.500000
vt 0.000000 1.000000
vn 0.000000 0.000000 -1.000000
v 8.499976 -200.000946 -42.500000
vt 1.000000 1.000000
vn 0.000000 0.000000 -1.000000
v 9.500024 200.000946 -41.500000
vt 0.000000 0.000000
vn 1.000000 -0.000000 0.000000
v 9.499976 -200.000946 -41.500000
vt 1.000000 0.000000
vn 1.000000 -0.000000 0.000000
v 9.500024 200.000946 -42.500000
vt 0.000000 0.000000
vn 0.000000 0.000000 -1.000000
v 9.499976 -200.000946 -42.500000
vt 1.000000 0.000000
vn 0.000000 0.000000 -1.000000
v 8.500024 200.000946 -42.500000
vt 0.000000 0.000000
vn -1.000000 0.000000 0.000000
v 8.500024 200.000946 -41.500000
vt 0.000000 1.000000
vn -1.000000 0.000000 0.000000
v 8.499976 -200.000946 -41.500000
vt 1.000000 1.000000
vn -1.000000 0.000000 0.000000
v 8.499976 -200.000946 -42.500000
vt 1.000000 0.000000
vn -1.000000 0.000000 0.000000
v 8.499976 -200.000946 -41.500000
vt 0.000000 0.000000
vn -0.000000 -1.000000 0.000000
v 9.499976 -200.000946 -41.500000
vt 0.000000 1.000000
vn -0.000000 -1.000000 0.000000
v 9.499976 -200.000946 -42.500000
vt 1.000000 1.000000
vn -0.000000 -1.000000 0.000000
v 8.499976 -200.000946 -42.500000
vt 1.000000 0.000000
vn -0.000000 -1.000000 0.000000
v 8.500024 200.000946 -42.500000
vt 0.000000 0.000000
vn 0.000000 1.000000 0.000000
v 9.500024 200.000946 -42.500000
vt 0.000000 1.000000
vn 0.000000 1.000000 0.000000
v 9.500024 200.000946 -41.500000
vt 1.000000 1.000000
vn 0.000000 1.000000 0.000000
v 8.500024 200.000946 -41.500000
vt 1.000000 0.000000
vn 0.000000 1.000000 0.000000
v -3.499976 188.109680 -77.934258
vt 0.000000 0.000000
vn 0.000000 0.342020 0.939693
v -3.500024 -187.767670 58.873955
vt 1.000000 0.000000
vn 0.000000 0.342020 0.939693
v -2.499976 188.109680 -77.934258
vt 0.000000 1.000000
vn 0.000000 0.342020 0.939693
v -2.500024 -187.767670 58.873955
vt 1.000000 1.000000
vn 0.000000 0.342020 0.939693
v -2.499976 187.767670 -78.873955
vt 0.000000 1.000000
vn 1.000000 -0.000000 0.000000
v -2.500024 -188.109680 57.934258
vt 1.000000 1.000000
vn 1.000000 -0.000000 0.000000
v -3.499976 187.767670 -78.873955
vt 0.000000 1.000000
vn -0.000000 -0.342020 -0.939693
v -3.500024 -188.109680 57.934258
vt 1.000000 1.000000
vn -0.000000 -0.342020 -0.939693
v -2.499976 188.109680 -77.934258
vt 0.000000 0.000000
vn 1.000000 -0.000000 0.000000
v -2.500024 -187.767670 58.873955
vt 1.000000 0.000000
vn 1.000000 -0.000000 0.000000
v -2.499976 187.767670 -78.873955
vt 0.000000 0.000000
vn -0.000000 -0.342020 -0.939693
v -2.500024 -188.109680 57.934258
vt 1.000000 0.000000
vn -0.000000 -0.342020 -0.939693
v -3.499976 187.767670 -78.873955
vt 0.000000 0.000000
vn -1.000000 0.000000 -0.000000
v -3.499976 188.109680 -77.934258
vt 0.000000 1.000000
vn -1.000000 0.000000 -0.000000
v -3.500024 -187.767670 58.873955
vt 1.000000 1.000000
vn -1.000000 0.000000 -0.000000
v -3.500024 -188.109680 57.934258
vt 1.000000 0.000000
vn -1.000000 0.000000 -0.000000
v -3.500024 -187.767670 58.873955
vt 0.000000 0.000000
vn -0.000000 -0.939693 0.342020
v -2.500024 -187.767670 58.873955
vt 0.000000 1.000000
vn -0.000000 -0.939693 0.342020
v -2.500024 -188.109680 57.934258
vt 1.000000 1.000000
vn -0.000000 -0.939693 0.342020
v -3.500024 -188.109680 57.934258
vt 1.000000 0.000000
vn -0.000000 -0.939693 0.342020
v -3.499976 187.767670 -78.873955
vt 0.000000 0.000000
vn 0.000000 0.939693 -0.342020
v -2.499976 187.767670 -78.873955
vt 0.000000 1.000000
vn 0.000000 0.939693 -0.342020
v -2.499976 188.109680 -77.934258
vt 1.000000 1.000000
vn 0.000000 0.939693 -0.342020
v -3.499976 188.109680 -77.934258
vt 1.000000 0.000000
vn 0.000000 0.939693 -0.342020
v 2.500024 188.109680 -77.934258
vt 0.000000 0.000000
vn 0.000000 0.342020 0.939693
v 2.499976 -187.767670 58.873955
vt 1.000000 0.000000
vn 0.000000 0.342020 0.939693
v 3.500024 188.109680 -77.934258
vt 0.000000 1.000000
vn 0.000000 0.342020 0.939693
v 3.499976 -187.767670 58.873955
vt 1.000000 1.000000
vn 0.000000 0.342020 0.939693
v 3.500024 187.767670 -78.873955
vt 0.000000 1.000000
vn 1.000000 -0.000000 0.000000
v 3.499976 -188.109680 57.934258
vt 1.000000 1.000000
vn 1.000000 -0.000000 0.000000
v 2.500024 187.767670 -78.873955
vt 0.000000 1.000000
vn -0.000000 -0.342020 -0.939693
v 2.499976 -188.109680 57.934258
vt 1.000000 1.000000
vn -0.000000 -0.342020 -0.939693
v 3.500024 188.109680 -77.934258
vt 0.000000 0.000000
vn 1.000000 -0.000000 0.000000
v 3.499976 -187.767670 58.873955
vt 1.000000 0.000000
vn 1.000000 -0.000000 0.000000
v 3.500024 187.767670 -78.873955
vt 0.000000 0.000000
vn -0.000000 -0.342020 -0.939693
v 3.499976 -188.109680 57.934258
vt 1.000000 0.000000
vn -0.000000 -0.342020 -0.939693
v 2.500024 187.767670 -78.873955
vt 0.000000 0.000000
vn -1.000000 0.000000 -0.000000
v 2.500024 188.109680 -77.934258
vt 0.000000 1.000000
vn -1.000000 0.000000 -0.000000
v 2.499976 -187.767670 58.873955
vt 1.000000 1.000000
vn -1.000000 0.000000 -0.000000
v 2.499976 -188.109680 57.934258
vt 1.000000 0.000000
vn -1.000000 0.000000 -0.000000
v 2.499976 -187.767670 58.873955
vt 0.000000 0.000000
vn -0.000000 -0.939693 0.342020
v 3.499976 -187.767670 58.873955
vt 0.000000 1.000000
vn -0.000000 -0.939693 0.342020
v 3.499976 -188.109680 57.934258
vt 1.000000 1.000000
vn -0.000000 -0.939693 0.342020
v 2.499976 -188.109680 57.934258
vt 1.000000 0.000000
vn -0.000000 -0.939693 0.342020
v 2.500024 187.767670 -78.873955
vt 0.000000 0.000000
vn 0.000000 0.939693 -0.342020
v 3.500024 187.767670 -78.873955
vt 0.000000 1.000000
vn 0.000000 0.939693 -0.342020
v 3.500024 188.109680 -77.934258
vt 1.000000 1.000000
vn 0.000000 0.939693 -0.342020
v 2.500024 188.109680 -77.934258
vt 1.000000 0.000000
vn 0.000000 0.939693 -0.342020
v -3.499976 188.109863 -87.934326
vt 0.000000 0.000000
vn 0.000000 0.342020 0.939693
v -3.500024 -187.767853 48.874023
vt 1.000000 0.000000
vn 0.000000 0.342020 0.939693
v -2.499976 188.109863 -87.934326
vt 0.000000 1.000000
vn 0.000000 0.342020 0.939693
v -2.500024 -187.767853 48.874023
vt 1.000000 1.000000
vn 0.000000 0.342020 0.939693
v -2.499976 187.767853 -88.874023
vt 0.000000 1.000000
vn 1.000000 -0.000000 0.000000
v -2.500024 -188.109863 47.934326
vt 1.000000 1.000000
vn 1.000000 -0.000000 0.000000
v -3.499976 187.767853 -88.874023
vt 0.000000 1.000000
vn -0.000000 -0.342020 -0.939693
v -3.500024 -188.109863 47.934326
vt 1.000000 1.000000
vn -0.000000 -0.342020 -0.939693
v -2.499976 188.109863 -87.934326
vt 0.000000 0.000000
vn 1.000000 -0.000000 0.000000
v -2.500024 -187.767853 48.874023
vt 1.000000 0.000000
vn 1.000000 -0.000000 0.000000
v -2.499976 187.767853 -88.874023
vt 0.000000 0.000000
vn -0.000000 -0.342020 -0.939693
v -2.500024 -188.109863 47.934326
vt 1.000000 0.000000
vn -0.000000 -0.342020 -0.939693
v -3.499976 187.767853 -88.874023
vt 0.000000 0.000000
vn -1.000000 0.000000 -0.000000
v -3.499976 188.109863 -87.934326
vt 0.000000 1.000000
vn -1.000000 0.000000 -0.000000
v -3.500024 -187.767853 48.874023
vt 1.000000 1.000000
vn -1.000000 0.000000 -0.000000
v -3.500024 -188.109863 47.934326
vt 1.000000 0.000000
vn -1.000000 0.000000 -0.000000
v -3.500024 -187.767853 48.874023
vt 0.000000 0.000000
vn -0.000000 -0.939693 0.342020
v -2.500024 -187.767853 48.874023
vt 0.000000 1.000000
vn -0.000000 -0.939693 0.342020
v -2.500024 -188.109863 47.934326
vt 1.000000 1.000000
vn -0.000000 -0.939693 0.342020
v -3.500024 -188.109863 47.934326
vt 1.000000 0.000000
vn -0.000000 -0.939693 0.342020
v -3.499976 187.767853 -88.874023
vt 0.000000 0.000000
vn 0.000000 0.939693 -0.342020
v -2.499976 187.767853 -88.874023
vt 0.000000 1.000000
vn 0.000000 0.939693 -0.342020
v -2.499976 188.109863 -87.934326
vt 1.000000 1.000000
vn 0.000000 0.939693 -0.342020
v -3.499976 188.109863 -87.934326
vt 1.000000 0.000000
vn 0.000000 0.939693 -0.342020
# Faces (1 to 192)
g CombinedMesh_0
f -189/-189/-189 -190/-190/-190 -192/-192/-192
f -191/-191/-191 -189/-189/-189 -192/-192/-192
f -187/-187/-187 -188/-188/-188 -184/-184/-184
f -183/-183/-183 -187/-187/-187 -184/-184/-184
f -185/-185/-185 -186/-186/-186 -182/-182/-182
f -181/-181/-181 -185/-185/-185 -182/-182/-182
f -178/-178/-178 -179/-179/-179 -180/-180/-180
f -177/-177/-177 -178/-178/-178 -180/-180/-180
f -174/-174/-174 -175/-175/-175 -176/-176/-176
f -173/-173/-173 -174/-174/-174 -176/-176/-176
f -170/-170/-170 -171/-171/-171 -172/-172/-172
f -169/-169/-169 -170/-170/-170 -172/-172/-172
f -165/-165/-165 -166/-166/-166 -168/-168/-168
f -167/-167/-167 -165/-165/-165 -168/-168/-168
f -163/-163/-163 -164/-164/-164 -160/-160/-160
f -159/-159/-159 -163/-163/-163 -160/-160/-160
f -161/-161/-161 -162/-162/-162 -158/-158/-158
f -157/-157/-157 -161/-161/-161 -158/-158/-158
f -154/-154/-154 -155/-155/-155 -156/-156/-156
f -153/-153/-153 -154/-154/-154 -156/-156/-156
f -150/-150/-150 -151/-151/-151 -152/-152/-152
f -149/-149/-149 -150/-150/-150 -152/-152/-152
f -146/-146/-146 -147/-147/-147 -148/-148/-148
f -145/-145/-145 -146/-146/-146 -148/-148/-148
f -141/-141/-141 -142/-142/-142 -144/-144/-144
f -143/-143/-143 -141/-141/-141 -144/-144/-144
f -139/-139/-139 -140/-140/-140 -136/-136/-136
f -135/-135/-135 -139/-139/-139 -136/-136/-136
f -137/-137/-137 -138/-138/-138 -134/-134/-134
f -133/-133/-133 -137/-137/-137 -134/-134/-134
f -130/-130/-130 -131/-131/-131 -132/-132/-132
f -129/-129/-129 -130/-130/-130 -132/-132/-132
f -126/-126/-126 -127/-127/-127 -128/-128/-128
f -125/-125/-125 -126/-126/-126 -128/-128/-128
f -122/-122/-122 -123/-123/-123 -124/-124/-124
f -121/-121/-121 -122/-122/-122 -124/-124/-124
f -117/-117/-117 -118/-118/-118 -120/-120/-120
f -119/-119/-119 -117/-117/-117 -120/-120/-120
f -115/-115/-115 -116/-116/-116 -112/-112/-112
f -111/-111/-111 -115/-115/-115 -112/-112/-112
f -113/-113/-113 -114/-114/-114 -110/-110/-110
f -109/-109/-109 -113/-113/-113 -110/-110/-110
f -106/-106/-106 -107/-107/-107 -108/-108/-108
f -105/-105/-105 -106/-106/-106 -108/-108/-108
f -102/-102/-102 -103/-103/-103 -104/-104/-104
f -101/-101/-101 -102/-102/-102 -104/-104/-104
f -98/-98/-98 -99/-99/-99 -100/-100/-100
f -97/-97/-97 -98/-98/-98 -100/-100/-100
f -93/-93/-93 -94/-94/-94 -96/-96/-96
f -95/-95/-95 -93/-93/-93 -96/-96/-96
f -91/-91/-91 -92/-92/-92 -88/-88/-88
f -87/-87/-87 -91/-91/-91 -88/-88/-88
f -89/-89/-89 -90/-90/-90 -86/-86/-86
f -85/-85/-85 -89/-89/-89 -86/-86/-86
f -82/-82/-82 -83/-83/-83 -84/-84/-84
f -81/-81/-81 -82/-82/-82 -84/-84/-84
f -78/-78/-78 -79/-79/-79 -80/-80/-80
f -77/-77/-77 -78/-78/-78 -80/-80/-80
f -74/-74/-74 -75/-75/-75 -76/-76/-76
f -73/-73/-73 -74/-74/-74 -76/-76/-76
f -69/-69/-69 -70/-70/-70 -72/-72/-72
f -71/-71/-71 -69/-69/-69 -72/-72/-72
f -67/-67/-67 -68/-68/-68 -64/-64/-64
f -63/-63/-63 -67/-67/-67 -64/-64/-64
f -65/-65/-65 -66/-66/-66 -62/-62/-62
f -61/-61/-61 -65/-65/-65 -62/-62/-62
f -58/-58/-58 -59/-59/-59 -60/-60/-60
f -57/-57/-57 -58/-58/-58 -60/-60/-60
f -54/-54/-54 -55/-55/-55 -56/-56/-56
f -53/-53/-53 -54/-54/-54 -56/-56/-56
f -50/-50/-50 -51/-51/-51 -52/-52/-52
f -49/-49/-49 -50/-50/-50 -52/-52/-52
f -45/-45/-45 -46/-46/-46 -48/-48/-48
f -47/-47/-47 -45/-45/-45 -48/-48/-48
f -43/-43/-43 -44/-44/-44 -40/-40/-40
f -39/-39/-39 -43/-43/-43 -40/-40/-40
f -41/-41/-41 -42/-42/-42 -38/-38/-38
f -37/-37/-37 -41/-41/-41 -38/-38/-38
f -34/-34/-34 -35/-35/-35 -36/-36/-36
f -33/-33/-33 -34/-34/-34 -36/-36/-36
f -30/-30/-30 -31/-31/-31 -32/-32/-32
f -29/-29/-29 -30/-30/-30 -32/-32/-32
f -26/-26/-26 -27/-27/-27 -28/-28/-28
f -25/-25/-25 -26/-26/-26 -28/-28/-28
f -21/-21/-21 -22/-22/-22 -24/-24/-24
f -23/-23/-23 -21/-21/-21 -24/-24/-24
f -19/-19/-19 -20/-20/-20 -16/-16/-16
f -15/-15/-15 -19/-19/-19 -16/-16/-16
f -17/-17/-17 -18/-18/-18 -14/-14/-14
f -13/-13/-13 -17/-17/-17 -14/-14/-14
f -10/-10/-10 -11/-11/-11 -12/-12/-12
f -9/-9/-9 -10/-10/-10 -12/-12/-12
f -6/-6/-6 -7/-7/-7 -8/-8/-8
f -5/-5/-5 -6/-6/-6 -8/-8/-8
f -2/-2/-2 -3/-3/-3 -4/-4/-4
f -1/-1/-1 -2/-2/-2 -4/-4/-4

