g Ring
v -0.2 0 7.05005
v -0.2 -10.80314 -9.778564
v 0.2 -10.80314 -9.778564
v 0.2 0 7.05005
v -0.2 -10.80314 -9.778564
v -0.2 10.80314 -9.778564
v 0.2 10.80314 -9.778564
v 0.2 -10.80314 -9.778564
v -0.2 11.68314 -10.17856
v -0.2 0 7.600051
v -0.2 0 7.05005
v -0.2 10.80314 -9.778564
v -0.2 -11.68314 -10.17856
v -0.2 11.68314 -10.17856
v -0.2 10.80314 -9.778564
v -0.2 -10.80314 -9.778564
v -0.2 0 7.600051
v -0.2 -11.68314 -10.17856
v -0.2 -10.80314 -9.778564
v -0.2 0 7.05005
v 0 0 8.377736
v -0.2 0 7.600051
v -0.2 11.68314 -10.17856
v 0 12.52744 -10.66625
v -0.2 0 7.600051
v 0 0 8.377736
v 0 -12.52744 -10.66625
v -0.2 -11.68314 -10.17856
v -0.2 -11.68314 -10.17856
v 0 -12.52744 -10.66625
v 0 12.52744 -10.66625
v -0.2 11.68314 -10.17856
v -0.2 0 7.05005
v 0.2 0 7.05005
v 0.2 10.80314 -9.778564
v -0.2 10.80314 -9.778564
vn 0 0.8415251 -0.5402181
vn 0 0.8415251 -0.5402181
vn 0 0.8415251 -0.5402181
vn 0 0.8415251 -0.5402181
vn 0 0 1
vn 0 0 1
vn 0 0 1
vn 0 0 1
vn -1 0 0
vn -1 0 0
vn -1 0 0
vn -1 0 0
vn -1 0 0
vn -1 0 0
vn -1 0 0
vn -1 0 0
vn -1 0 0
vn -1 0 0
vn -1 0 0
vn -1 0 0
vn -0.9076133 0.3507791 0.2306341
vn -0.9076133 0.3507791 0.2306341
vn -0.9076133 0.3507791 0.2306341
vn -0.9076133 0.3507791 0.2306341
vn -0.9076133 -0.3507791 0.2306341
vn -0.9076133 -0.3507791 0.2306341
vn -0.9076133 -0.3507791 0.2306341
vn -0.9076133 -0.3507791 0.2306341
vn -0.9252197 0 -0.3794319
vn -0.9252197 0 -0.3794319
vn -0.9252197 0 -0.3794319
vn -0.9252197 0 -0.3794319
vn 0 -0.8415251 -0.5402181
vn 0 -0.8415251 -0.5402181
vn 0 -0.8415251 -0.5402181
vn 0 -0.8415251 -0.5402181
g Ring_0
f 3/3/3 2/2/2 1/1/1
f 4/4/4 3/3/3 1/1/1
f 7/7/7 6/6/6 5/5/5
f 8/8/8 7/7/7 5/5/5
f 11/11/11 10/10/10 9/9/9
f 12/12/12 11/11/11 9/9/9
f 15/15/15 14/14/14 13/13/13
f 16/16/16 15/15/15 13/13/13
f 19/19/19 18/18/18 17/17/17
f 20/20/20 19/19/19 17/17/17
f 23/23/23 22/22/22 21/21/21
f 24/24/24 23/23/23 21/21/21
f 27/27/27 26/26/26 25/25/25
f 28/28/28 27/27/27 25/25/25
f 31/31/31 30/30/30 29/29/29
f 32/32/32 31/31/31 29/29/29
f 35/35/35 34/34/34 33/33/33
f 36/36/36 35/35/35 33/33/33
