g Bomb
v 0 0 -0.264
v -0.072966 -0.224569 -0.118065
v 0.19103 -0.13879 -0.118065
v 0.19103 -0.13879 -0.118065
v 0.19103 0.13879 -0.118065
v 0 0 -0.264
v 0 0 -0.264
v -0.236128 0 -0.118065
v -0.072966 -0.224569 -0.118065
v 0 0 -0.264
v -0.072966 0.224569 -0.118065
v -0.236128 0 -0.118065
v 0 0 -0.264
v 0.19103 0.13879 -0.118065
v -0.072966 0.224569 -0.118065
v 0.19103 0.13879 -0.118065
v 0.203056 0.027758 -0.055097
v 0.212076 0 -0.007871
v 0.236128 0 0.118065
v 0.19103 -0.13879 -0.118065
v 0.089147 -0.184539 -0.055097
v 0.065535 -0.201695 -0.007871
v 0.072966 -0.224569 0.118065
v -0.072966 -0.224569 -0.118065
v -0.14796 -0.14181 -0.055097
v -0.171573 -0.124654 -0.007871
v -0.19103 -0.13879 0.118065
v -0.236128 0 -0.118065
v -0.180592 -0.096896 -0.055097
v -0.236128 0 -0.118065
v -0.180592 0.096896 -0.055097
v -0.171573 0.124654 -0.007871
v -0.19103 0.13879 0.118065
v -0.072966 0.224569 -0.118065
v 0.036348 0.201695 -0.055097
v 0.065535 0.201695 -0.007871
v 0.072966 0.224569 0.118065
v 0.072966 -0.224569 0.118065
v -0.036348 -0.201695 0.055097
v -0.089148 -0.184539 0.055097
v -0.19103 -0.13879 0.118065
v -0.19103 -0.13879 0.118065
v -0.203056 -0.027758 0.055097
v -0.203056 0.027758 0.055097
v -0.19103 0.13879 0.118065
v -0.212076 0 0.007871
v -0.236128 0 -0.118065
v -0.19103 0.13879 0.118065
v -0.089148 0.184539 0.055097
v -0.036348 0.201695 0.055097
v 0.072966 0.224569 0.118065
v 0.072966 0.224569 0.118065
v 0.14796 0.14181 0.055097
v 0.180592 0.096896 0.055097
v 0.236128 0 0.118065
v 0.19103 0.13879 -0.118065
v 0.171572 0.124654 0.007871
v 0.072966 -0.224569 0.118065
v 0 0 0.264
v 0.236128 0 0.118065
v -0.19103 -0.13879 0.118065
v 0 0 0.264
v 0.072966 -0.224569 0.118065
v -0.19103 0.13879 0.118065
v 0 0 0.264
v -0.19103 -0.13879 0.118065
v 0.072966 0.224569 0.118065
v 0 0 0.264
v -0.19103 0.13879 0.118065
v 0.236128 0 0.118065
v 0 0 0.264
v 0.072966 0.224569 0.118065
v 0.036348 0.201695 -0.055097
v 0.096729 0.297697 -0.059781
v 0.065535 0.201695 -0.007871
v 0.072966 0.224569 0.118065
v 0.065535 0.201695 -0.007871
v 0.089147 0.184539 -0.055097
v 0.19103 0.13879 -0.118065
v 0.19103 0.13879 -0.118065
v 0.089147 0.184539 -0.055097
v 0.036348 0.201695 -0.055097
v -0.072966 0.224569 -0.118065
v 0.065535 0.201695 -0.007871
v 0.096729 0.297697 -0.059781
v 0.089147 0.184539 -0.055097
v 0.089147 0.184539 -0.055097
v 0.096729 0.297697 -0.059781
v 0.036348 0.201695 -0.055097
v -0.180592 0.096896 -0.055097
v -0.250257 0.181823 -0.059078
v -0.171573 0.124654 -0.007871
v -0.19103 0.13879 0.118065
v -0.171573 0.124654 -0.007871
v -0.14796 0.14181 -0.055097
v -0.072966 0.224569 -0.118065
v -0.180592 0.096896 -0.055097
v -0.236128 0 -0.118065
v -0.14796 -0.14181 -0.055097
v -0.273709 -0.198862 -0.064614
v -0.171573 -0.124654 -0.007871
v -0.19103 -0.13879 0.118065
v -0.171573 -0.124654 -0.007871
v -0.180592 -0.096896 -0.055097
v -0.236128 0 -0.118065
v 0.089147 -0.184539 -0.055097
v 0.093263 -0.287042 -0.057639
v 0.065535 -0.201695 -0.007871
v 0.072966 -0.224569 0.118065
v 0.065535 -0.201695 -0.007871
v 0.036348 -0.201695 -0.055097
v -0.072966 -0.224569 -0.118065
v -0.072966 -0.224569 -0.118065
v 0.036348 -0.201695 -0.055097
v 0.089147 -0.184539 -0.055097
v 0.19103 -0.13879 -0.118065
v 0.203056 0.027758 -0.055097
v 0.304023 0 -0.058064
v 0.212076 0 -0.007871
v 0.236128 0 0.118065
v 0.212076 0 -0.007871
v 0.203056 -0.027758 -0.055097
v 0.19103 -0.13879 -0.118065
v 0.19103 -0.13879 -0.118065
v 0.203056 -0.027758 -0.055097
v 0.203056 0.027758 -0.055097
v 0.19103 0.13879 -0.118065
v 0.212076 0 -0.007871
v 0.304023 0 -0.058064
v 0.203056 -0.027758 -0.055097
v 0.203056 -0.027758 -0.055097
v 0.304023 0 -0.058064
v 0.203056 0.027758 -0.055097
v 0.065535 -0.201695 -0.007871
v 0.093263 -0.287042 -0.057639
v 0.036348 -0.201695 -0.055097
v 0.036348 -0.201695 -0.055097
v 0.093263 -0.287042 -0.057639
v 0.089147 -0.184539 -0.055097
v -0.171573 -0.124654 -0.007871
v -0.273709 -0.198862 -0.064614
v -0.180592 -0.096896 -0.055097
v -0.180592 -0.096896 -0.055097
v -0.273709 -0.198862 -0.064614
v -0.14796 -0.14181 -0.055097
v -0.171573 0.124654 -0.007871
v -0.250257 0.181823 -0.059078
v -0.14796 0.14181 -0.055097
v -0.14796 0.14181 -0.055097
v -0.250257 0.181823 -0.059078
v -0.180592 0.096896 -0.055097
v -0.203056 -0.027758 0.055097
v -0.324165 0 0.061911
v -0.203056 0.027758 0.055097
v -0.089148 0.184539 0.055097
v -0.102565 0.31566 0.063389
v -0.036348 0.201695 0.055097
v 0.072966 0.224569 0.118065
v -0.036348 0.201695 0.055097
v -0.065535 0.201695 0.007871
v -0.072966 0.224569 -0.118065
v -0.089148 0.184539 0.055097
v -0.19103 0.13879 0.118065
v 0.14796 0.14181 0.055097
v 0.255937 0.18595 0.060419
v 0.180592 0.096896 0.055097
v 0.236128 0 0.118065
v 0.180592 -0.096896 0.055097
v 0.14796 -0.14181 0.055097
v 0.072966 -0.224569 0.118065
v 0.171572 -0.124654 0.007871
v 0.19103 -0.13879 -0.118065
v 0.180592 -0.096896 0.055097
v 0.254372 -0.184813 0.060049
v 0.14796 -0.14181 0.055097
v -0.036348 -0.201695 0.055097
v -0.092432 -0.284475 0.057126
v -0.089148 -0.184539 0.055097
v -0.19103 -0.13879 0.118065
v -0.089148 -0.184539 0.055097
v -0.065535 -0.201695 0.007871
v -0.072966 -0.224569 -0.118065
v -0.036348 -0.201695 0.055097
v 0.072966 -0.224569 0.118065
v -0.089148 -0.184539 0.055097
v -0.092432 -0.284475 0.057126
v -0.065535 -0.201695 0.007871
v -0.065535 -0.201695 0.007871
v -0.092432 -0.284475 0.057126
v -0.036348 -0.201695 0.055097
v -0.203056 0.027758 0.055097
v -0.324165 0 0.061911
v -0.212076 0 0.007871
v -0.212076 0 0.007871
v -0.324165 0 0.061911
v -0.203056 -0.027758 0.055097
v -0.036348 0.201695 0.055097
v -0.102565 0.31566 0.063389
v -0.065535 0.201695 0.007871
v -0.065535 0.201695 0.007871
v -0.102565 0.31566 0.063389
v -0.089148 0.184539 0.055097
v 0.171572 0.124654 0.007871
v 0.255937 0.18595 0.060419
v 0.14796 0.14181 0.055097
v 0.180592 0.096896 0.055097
v 0.255937 0.18595 0.060419
v 0.171572 0.124654 0.007871
v 0.14796 -0.14181 0.055097
v 0.254372 -0.184813 0.060049
v 0.171572 -0.124654 0.007871
v 0.171572 -0.124654 0.007871
v 0.254372 -0.184813 0.060049
v 0.180592 -0.096896 0.055097
vt 0.24506 0.443419
vt 0.441698 0.498017
vt 0.441698 0.27962
vt 0.441698 0.27962
vt 0.211474 0.178386
vt 0.24506 0.443419
vt 0.742834 0.930816
vt 0.930816 0.848159
vt 0.715408 0.714419
vt 0.09661 0.498017
vt 0.069184 0.714414
vt 0.284592 0.580674
vt 0.24506 0.443419
vt 0.211474 0.178386
vt 0.069184 0.334216
vt 0.5 0.848158
vt 0.5 0.848158
vt 0.5 0.580674
vt 0.5 0.580674
vt 0.715408 0.580674
vt 0.715408 0.580674
vt 0.5 0.714419
vt 0.5 0.714419
vt 0.715408 0.714419
vt 0.715408 0.714419
vt 0.930816 0.580675
vt 0.930816 0.580675
vt 0.930816 0.848159
vt 0.930816 0.848159
vt 0.759867 0.069184
vt 0.759867 0.069184
vt 0.583988 0.178386
vt 0.583988 0.178386
vt 0.069184 0.714414
vt 0.069184 0.714414
vt 0.096611 0.930816
vt 0.096611 0.930816
vt 0.814212 0.498017
vt 0.814212 0.498017
vt 0.814212 0.27962
vt 0.814212 0.27962
vt 0.814212 0.27962
vt 0.814212 0.27962
vt 0.583988 0.178386
vt 0.583988 0.178386
vt 0.759867 0.069184
vt 0.759867 0.069184
vt 0.583988 0.178386
vt 0.583988 0.178386
vt 0.441698 0.334216
vt 0.441698 0.334216
vt 0.284592 0.714414
vt 0.284592 0.714414
vt 0.5 0.580674
vt 0.5 0.580674
vt 0.5 0.848158
vt 0.5 0.848158
vt 0.5 0.714419
vt 0.527426 0.930816
vt 0.715408 0.848159
vt 0.814212 0.27962
vt 0.617574 0.443419
vt 0.814212 0.498017
vt 0.583988 0.178386
vt 0.617574 0.443419
vt 0.814212 0.27962
vt 0.441698 0.334216
vt 0.617574 0.443419
vt 0.583988 0.178386
vt 0.5 0.580674
vt 0.312018 0.498017
vt 0.284592 0.714414
vt 0.069184 0.714414
vt 0.069184 0.714414
vt 0.096611 0.930816
vt 0.284592 0.714414
vt 0.284592 0.714414
vt 0.5 0.848158
vt 0.5 0.848158
vt 0.211474 0.178386
vt 0.211474 0.178386
vt 0.069184 0.334216
vt 0.069184 0.334216
vt 0.284592 0.714414
vt 0.284592 0.714414
vt 0.5 0.848158
vt 0.211474 0.178386
vt 0.211474 0.178386
vt 0.069184 0.334216
vt 0.759867 0.069184
vt 0.759867 0.069184
vt 0.583988 0.178386
vt 0.284592 0.848158
vt 0.284592 0.848158
vt 0.069184 0.714414
vt 0.069184 0.714414
vt 0.284592 0.580674
vt 0.284592 0.580674
vt 0.715408 0.714419
vt 0.715408 0.714419
vt 0.930816 0.580675
vt 0.814212 0.27962
vt 0.814212 0.27962
vt 0.759867 0.069184
vt 0.759867 0.069184
vt 0.715408 0.580674
vt 0.715408 0.580674
vt 0.5 0.714419
vt 0.742835 0.498017
vt 0.742835 0.498017
vt 0.715408 0.714419
vt 0.715408 0.714419
vt 0.441698 0.498017
vt 0.441698 0.498017
vt 0.441698 0.27962
vt 0.441698 0.27962
vt 0.5 0.848158
vt 0.5 0.848158
vt 0.5 0.580674
vt 0.715408 0.848159
vt 0.715408 0.848159
vt 0.715408 0.580674
vt 0.715408 0.580674
vt 0.441698 0.27962
vt 0.441698 0.27962
vt 0.211474 0.178386
vt 0.211474 0.178386
vt 0.715408 0.848159
vt 0.715408 0.848159
vt 0.715408 0.580674
vt 0.441698 0.27962
vt 0.441698 0.27962
vt 0.211474 0.178386
vt 0.742835 0.498017
vt 0.742835 0.498017
vt 0.715408 0.714419
vt 0.441698 0.498017
vt 0.441698 0.498017
vt 0.441698 0.27962
vt 0.814212 0.27962
vt 0.814212 0.27962
vt 0.759867 0.069184
vt 0.930816 0.848159
vt 0.930816 0.848159
vt 0.715408 0.714419
vt 0.284592 0.848158
vt 0.284592 0.848158
vt 0.069184 0.714414
vt 0.069184 0.714414
vt 0.069184 0.714414
vt 0.284592 0.580674
vt 0.814212 0.27962
vt 0.814212 0.27962
vt 0.583988 0.178386
vt 0.583988 0.178386
vt 0.583988 0.178386
vt 0.441698 0.334216
vt 0.096611 0.930816
vt 0.096611 0.930816
vt 0.069184 0.714414
vt 0.069184 0.714414
vt 0.284592 0.848158
vt 0.284592 0.848158
vt 0.284592 0.714414
vt 0.284592 0.714414
vt 0.5 0.580674
vt 0.715408 0.848159
vt 0.715408 0.848159
vt 0.5 0.714419
vt 0.5 0.714419
vt 0.715408 0.580674
vt 0.715408 0.580674
vt 0.715408 0.848159
vt 0.715408 0.848159
vt 0.5 0.714419
vt 0.814212 0.498017
vt 0.814212 0.498017
vt 0.814212 0.27962
vt 0.930816 0.580675
vt 0.930816 0.580675
vt 0.715408 0.714419
vt 0.715408 0.714419
vt 0.742835 0.498017
vt 0.742835 0.498017
vt 0.930816 0.580675
vt 0.930816 0.580675
vt 0.715408 0.714419
vt 0.715408 0.714419
vt 0.715408 0.714419
vt 0.742835 0.498017
vt 0.583988 0.178386
vt 0.583988 0.178386
vt 0.759867 0.069184
vt 0.759867 0.069184
vt 0.759867 0.069184
vt 0.814212 0.27962
vt 0.096611 0.930816
vt 0.096611 0.930816
vt 0.069184 0.714414
vt 0.069184 0.714414
vt 0.069184 0.714414
vt 0.284592 0.848158
vt 0.5 0.848158
vt 0.5 0.848158
vt 0.284592 0.714414
vt 0.5 0.580674
vt 0.5 0.580674
vt 0.5 0.848158
vt 0.5 0.714419
vt 0.5 0.714419
vt 0.715408 0.580674
vt 0.715408 0.580674
vt 0.715408 0.580674
vt 0.715408 0.848159
vn 0.187597 -0.5773539 -0.7946508
vn 0.187597 -0.5773539 -0.7946508
vn 0.187597 -0.5773539 -0.7946508
vn 0.6070651 0 -0.7946521
vn 0.6070651 0 -0.7946521
vn 0.6070651 0 -0.7946521
vn -0.4911221 -0.3568291 -0.7946522
vn -0.4911221 -0.3568291 -0.7946522
vn -0.4911221 -0.3568291 -0.7946522
vn -0.4911221 0.3568291 -0.7946522
vn -0.4911221 0.3568291 -0.7946522
vn -0.4911221 0.3568291 -0.7946522
vn 0.187597 0.5773539 -0.7946508
vn 0.187597 0.5773539 -0.7946508
vn 0.187597 0.5773539 -0.7946508
vn 0.982246 0 -0.187597
vn 0.982246 0 -0.187597
vn 0.982246 0 -0.187597
vn 0.982246 0 -0.187597
vn 0.3035361 -0.9341713 -0.1875891
vn 0.3035361 -0.9341713 -0.1875891
vn 0.3035361 -0.9341713 -0.1875891
vn 0.3035361 -0.9341713 -0.1875891
vn -0.7946493 -0.5773593 -0.1875871
vn -0.7946493 -0.5773593 -0.1875871
vn -0.7946493 -0.5773593 -0.1875871
vn -0.7946493 -0.5773593 -0.1875871
vn -0.7946493 -0.5773593 -0.1875871
vn -0.7946493 -0.5773593 -0.1875871
vn -0.7946493 0.5773593 -0.1875871
vn -0.7946493 0.5773593 -0.1875871
vn -0.7946493 0.5773593 -0.1875871
vn -0.7946493 0.5773593 -0.1875871
vn 0.3035361 0.9341713 -0.1875891
vn 0.3035361 0.9341713 -0.1875891
vn 0.3035361 0.9341713 -0.1875891
vn 0.3035361 0.9341713 -0.1875891
vn -0.3035358 -0.9341715 0.1875889
vn -0.3035358 -0.9341715 0.1875889
vn -0.3035358 -0.9341715 0.1875889
vn -0.3035358 -0.9341715 0.1875889
vn -0.982246 0 0.187597
vn -0.982246 0 0.187597
vn -0.982246 0 0.187597
vn -0.982246 0 0.187597
vn -0.982246 0 0.187597
vn -0.982246 0 0.187597
vn -0.3035358 0.9341715 0.1875889
vn -0.3035358 0.9341715 0.1875889
vn -0.3035358 0.9341715 0.1875889
vn -0.3035358 0.9341715 0.1875889
vn 0.7946493 0.5773593 0.1875871
vn 0.7946493 0.5773593 0.1875871
vn 0.7946493 0.5773593 0.1875871
vn 0.7946493 0.5773593 0.1875871
vn 0.7946493 0.5773593 0.1875871
vn 0.7946493 0.5773593 0.1875871
vn 0.4911221 -0.3568291 0.7946522
vn 0.4911221 -0.3568291 0.7946522
vn 0.4911221 -0.3568291 0.7946522
vn -0.187597 -0.5773539 0.7946508
vn -0.187597 -0.5773539 0.7946508
vn -0.187597 -0.5773539 0.7946508
vn -0.6070651 0 0.7946521
vn -0.6070651 0 0.7946521
vn -0.6070651 0 0.7946521
vn -0.187597 0.5773539 0.7946508
vn -0.187597 0.5773539 0.7946508
vn -0.187597 0.5773539 0.7946508
vn 0.4911221 0.3568291 0.7946522
vn 0.4911221 0.3568291 0.7946522
vn 0.4911221 0.3568291 0.7946522
vn -0.7419931 0.4890471 0.4585621
vn -0.7419931 0.4890471 0.4585621
vn -0.7419931 0.4890471 0.4585621
vn 0.3035361 0.9341713 -0.1875891
vn 0.3035361 0.9341713 -0.1875891
vn 0.3035361 0.9341713 -0.1875891
vn 0.3035361 0.9341713 -0.1875891
vn 0.3035358 0.9341715 -0.1875889
vn 0.3035358 0.9341715 -0.1875889
vn 0.3035358 0.9341715 -0.1875889
vn 0.3035358 0.9341715 -0.1875889
vn 0.8877329 -0.04048999 0.4585749
vn 0.8877329 -0.04048999 0.4585749
vn 0.8877329 -0.04048999 0.4585749
vn -0.013153 -0.04047899 -0.9990938
vn -0.013153 -0.04047899 -0.9990938
vn -0.013153 -0.04047899 -0.9990938
vn -0.6979913 -0.5511233 0.4572432
vn -0.6979913 -0.5511233 0.4572432
vn -0.6979913 -0.5511233 0.4572432
vn -0.7946493 0.5773593 -0.1875871
vn -0.7946493 0.5773593 -0.1875871
vn -0.7946493 0.5773593 -0.1875871
vn -0.7946493 0.5773593 -0.1875871
vn -0.7946493 0.5773593 -0.1875871
vn -0.7946493 0.5773593 -0.1875871
vn 0.336211 -0.818694 0.465513
vn 0.336211 -0.818694 0.465513
vn 0.336211 -0.818694 0.465513
vn -0.7946493 -0.5773593 -0.1875871
vn -0.7946493 -0.5773593 -0.1875871
vn -0.7946493 -0.5773593 -0.1875871
vn -0.7946493 -0.5773593 -0.1875871
vn 0.8905711 0.024494 0.4541841
vn 0.8905711 0.024494 0.4541841
vn 0.8905711 0.024494 0.4541841
vn 0.303535 -0.9341719 -0.187589
vn 0.303535 -0.9341719 -0.187589
vn 0.303535 -0.9341719 -0.187589
vn 0.303535 -0.9341719 -0.187589
vn 0.3035361 -0.9341713 -0.1875891
vn 0.3035361 -0.9341713 -0.1875891
vn 0.3035361 -0.9341713 -0.1875891
vn 0.3035361 -0.9341713 -0.1875891
vn 0.2484501 0.8550614 0.4551292
vn 0.2484501 0.8550614 0.4551292
vn 0.2484501 0.8550614 0.4551292
vn 0.982246 0 -0.187597
vn 0.982246 0 -0.187597
vn 0.982246 0 -0.187597
vn 0.982246 0 -0.187597
vn 0.982246 0 -0.187597
vn 0.982246 0 -0.187597
vn 0.982246 0 -0.187597
vn 0.982246 0 -0.187597
vn 0.248451 -0.8550611 0.4551291
vn 0.248451 -0.8550611 0.4551291
vn 0.248451 -0.8550611 0.4551291
vn -0.02937601 0 -0.9995684
vn -0.02937601 0 -0.9995684
vn -0.02937601 0 -0.9995684
vn -0.7349072 -0.5036161 0.4541831
vn -0.7349072 -0.5036161 0.4541831
vn -0.7349072 -0.5036161 0.4541831
vn -0.007952997 0.02447699 -0.9996687
vn -0.007952997 0.02447699 -0.9996687
vn -0.007952997 0.02447699 -0.9996687
vn -0.6747431 0.5727361 0.4655051
vn -0.6747431 0.5727361 0.4655051
vn -0.6747431 0.5727361 0.4655051
vn 0.056779 0.041254 -0.997534
vn 0.056779 0.041254 -0.997534
vn 0.056779 0.041254 -0.997534
vn 0.3084729 0.8341267 0.4572498
vn 0.3084729 0.8341267 0.4572498
vn 0.3084729 0.8341267 0.4572498
vn 0.03028101 -0.02200101 -0.9992993
vn 0.03028101 -0.02200101 -0.9992993
vn 0.03028101 -0.02200101 -0.9992993
vn 0.056175 0 0.998421
vn 0.056175 0 0.998421
vn 0.056175 0 0.998421
vn 0.019845 -0.06107499 0.9979359
vn 0.019845 -0.06107499 0.9979359
vn 0.019845 -0.06107499 0.9979359
vn -0.3035361 0.9341713 0.1875891
vn -0.3035361 0.9341713 0.1875891
vn -0.3035361 0.9341713 0.1875891
vn -0.3035361 0.9341713 0.1875891
vn -0.3035358 0.9341715 0.1875889
vn -0.3035358 0.9341715 0.1875889
vn -0.03795699 -0.02757799 0.9988987
vn -0.03795699 -0.02757799 0.9988987
vn -0.03795699 -0.02757799 0.9988987
vn 0.7946493 -0.5773593 0.1875871
vn 0.7946493 -0.5773593 0.1875871
vn 0.7946493 -0.5773593 0.1875871
vn 0.7946493 -0.5773593 0.1875871
vn 0.7946493 -0.5773593 0.1875871
vn 0.7946493 -0.5773593 0.1875871
vn -0.03593999 0.02611199 0.9990127
vn -0.03593999 0.02611199 0.9990127
vn -0.03593999 0.02611199 0.9990127
vn 0.006526999 0.020087 0.9997769
vn 0.006526999 0.020087 0.9997769
vn 0.006526999 0.020087 0.9997769
vn -0.3035358 -0.9341715 0.1875889
vn -0.3035358 -0.9341715 0.1875889
vn -0.3035358 -0.9341715 0.1875889
vn -0.3035358 -0.9341715 0.1875889
vn -0.303535 -0.9341719 0.187589
vn -0.303535 -0.9341719 0.187589
vn -0.8913073 0.02009801 -0.4529541
vn -0.8913073 0.02009801 -0.4529541
vn -0.8913073 0.02009801 -0.4529541
vn 0.732899 -0.507645 -0.452941
vn 0.732899 -0.507645 -0.452941
vn 0.732899 -0.507645 -0.452941
vn -0.222748 0.8584392 -0.4620231
vn -0.222748 0.8584392 -0.4620231
vn -0.222748 0.8584392 -0.4620231
vn -0.222748 -0.8584392 -0.4620231
vn -0.222748 -0.8584392 -0.4620231
vn -0.222748 -0.8584392 -0.4620231
vn 0.7508402 0.4700171 -0.4640291
vn 0.7508402 0.4700171 -0.4640291
vn 0.7508402 0.4700171 -0.4640291
vn -0.883704 -0.061085 -0.464043
vn -0.883704 -0.061085 -0.464043
vn -0.883704 -0.061085 -0.464043
vn -0.316539 0.8297501 -0.459693
vn -0.316539 0.8297501 -0.459693
vn -0.316539 0.8297501 -0.459693
vn 0.691337 -0.5574421 -0.459686
vn 0.691337 -0.5574421 -0.459686
vn 0.691337 -0.5574421 -0.459686
vn -0.314421 -0.8309079 -0.4590549
vn -0.314421 -0.8309079 -0.4590549
vn -0.314421 -0.8309079 -0.4590549
vn 0.6930921 0.5557861 -0.4590481
vn 0.6930921 0.5557861 -0.4590481
vn 0.6930921 0.5557861 -0.4590481
g Bomb_0
f 3/3/3 2/2/2 1/1/1
f 6/6/6 5/5/5 4/4/4
f 9/9/9 8/8/8 7/7/7
f 12/12/12 11/11/11 10/10/10
f 15/15/15 14/14/14 13/13/13
f 18/18/18 17/17/17 16/16/16
f 19/19/19 18/18/18 16/16/16
f 22/22/22 21/21/21 20/20/20
f 23/23/23 22/22/22 20/20/20
f 26/26/26 25/25/25 24/24/24
f 27/27/27 26/26/26 24/24/24
f 24/24/24 25/25/25 28/28/28
f 25/25/25 29/29/29 28/28/28
f 32/32/32 31/31/31 30/30/30
f 33/33/33 32/32/32 30/30/30
f 36/36/36 35/35/35 34/34/34
f 37/37/37 36/36/36 34/34/34
f 40/40/40 39/39/39 38/38/38
f 41/41/41 40/40/40 38/38/38
f 44/44/44 43/43/43 42/42/42
f 45/45/45 44/44/44 42/42/42
f 46/46/46 44/44/44 45/45/45
f 47/47/47 46/46/46 45/45/45
f 43/43/43 46/46/46 47/47/47
f 42/42/42 43/43/43 47/47/47
f 50/50/50 49/49/49 48/48/48
f 51/51/51 50/50/50 48/48/48
f 54/54/54 53/53/53 52/52/52
f 55/55/55 54/54/54 52/52/52
f 52/52/52 53/53/53 56/56/56
f 53/53/53 57/57/57 56/56/56
f 57/57/57 54/54/54 55/55/55
f 56/56/56 57/57/57 55/55/55
f 60/60/60 59/59/59 58/58/58
f 63/63/63 62/62/62 61/61/61
f 66/66/66 65/65/65 64/64/64
f 69/69/69 68/68/68 67/67/67
f 72/72/72 71/71/71 70/70/70
f 75/75/75 74/74/74 73/73/73
f 78/78/78 77/77/77 76/76/76
f 79/79/79 78/78/78 76/76/76
f 82/82/82 81/81/81 80/80/80
f 83/83/83 82/82/82 80/80/80
f 86/86/86 85/85/85 84/84/84
f 89/89/89 88/88/88 87/87/87
f 92/92/92 91/91/91 90/90/90
f 95/95/95 94/94/94 93/93/93
f 96/96/96 95/95/95 93/93/93
f 97/97/97 95/95/95 96/96/96
f 98/98/98 97/97/97 96/96/96
f 101/101/101 100/100/100 99/99/99
f 104/104/104 103/103/103 102/102/102
f 105/105/105 104/104/104 102/102/102
f 108/108/108 107/107/107 106/106/106
f 111/111/111 110/110/110 109/109/109
f 112/112/112 111/111/111 109/109/109
f 115/115/115 114/114/114 113/113/113
f 116/116/116 115/115/115 113/113/113
f 119/119/119 118/118/118 117/117/117
f 122/122/122 121/121/121 120/120/120
f 123/123/123 122/122/122 120/120/120
f 126/126/126 125/125/125 124/124/124
f 127/127/127 126/126/126 124/124/124
f 130/130/130 129/129/129 128/128/128
f 133/133/133 132/132/132 131/131/131
f 136/136/136 135/135/135 134/134/134
f 139/139/139 138/138/138 137/137/137
f 142/142/142 141/141/141 140/140/140
f 145/145/145 144/144/144 143/143/143
f 148/148/148 147/147/147 146/146/146
f 151/151/151 150/150/150 149/149/149
f 154/154/154 153/153/153 152/152/152
f 157/157/157 156/156/156 155/155/155
f 160/160/160 159/159/159 158/158/158
f 161/161/161 160/160/160 158/158/158
f 162/162/162 160/160/160 161/161/161
f 163/163/163 162/162/162 161/161/161
f 166/166/166 165/165/165 164/164/164
f 169/169/169 168/168/168 167/167/167
f 170/170/170 169/169/169 167/167/167
f 171/171/171 169/169/169 170/170/170
f 172/172/172 171/171/171 170/170/170
f 168/168/168 171/171/171 172/172/172
f 167/167/167 168/168/168 172/172/172
f 175/175/175 174/174/174 173/173/173
f 178/178/178 177/177/177 176/176/176
f 181/181/181 180/180/180 179/179/179
f 182/182/182 181/181/181 179/179/179
f 183/183/183 181/181/181 182/182/182
f 184/184/184 183/183/183 182/182/182
f 187/187/187 186/186/186 185/185/185
f 190/190/190 189/189/189 188/188/188
f 193/193/193 192/192/192 191/191/191
f 196/196/196 195/195/195 194/194/194
f 199/199/199 198/198/198 197/197/197
f 202/202/202 201/201/201 200/200/200
f 205/205/205 204/204/204 203/203/203
f 208/208/208 207/207/207 206/206/206
f 211/211/211 210/210/210 209/209/209
f 214/214/214 213/213/213 212/212/212
